<svg xmlns="http://www.w3.org/2000/svg" xml:space="preserve" id="Слой_1" x="0" y="0" style="enable-background:new 0 0 600 300" version="1.1" viewBox="0 0 600 300"><style>.st1{fill:#c126ce}.st2{fill:#fff}</style><path d="M148.5 28.6v4.1l-16.9 4-2.3.5.5 2.3 8.3 35.3-37.1 8.7-2.3.5.6 2.3 9.3 39.9.6 2.3 2.2-.5 37.1-8.7v34.2H87.2V28.6z" style="fill:#284ccb"/><path d="m174 29.1 8.8 37.7 39.3-9.2 9.3 39.9-39.3 9.2 8.8 37.6-41.7 9.7-8.8-37.6-39.3 9.2-9.3-39.9 39.3-9.2-8.8-37.6z" class="st1"/><path d="M271.8 149.2c-3.4-.8-6.5-1.9-9.5-3.4s-5.7-3.3-8.2-5.6c-2.5-2.3-4.6-4.8-6.4-7.7s-3.2-6.1-4.2-9.8-1.5-7.7-1.5-11.9c0-3.7.4-7.2 1.2-10.6s2-6.6 3.5-9.5c1.5-3 3.4-5.7 5.8-8.1s5-4.5 7.9-6.2c2.9-1.7 6.2-3.1 10-4s7.7-1.4 11.9-1.4c5.6 0 11.2 1.2 16.9 3.7 5.6 2.5 10.5 6.2 14.6 11.2l-15.1 13c-.9-1-1.9-1.9-3-2.8s-2.3-1.7-3.7-2.5-2.9-1.5-4.6-1.9-3.4-.7-5.1-.7c-1.9 0-3.8.3-5.6.8-1.8.5-3.5 1.3-5.1 2.5-1.6 1.1-3 2.5-4.1 4s-2.1 3.4-2.8 5.6-1 4.5-1 7.1c0 2.6.4 5.1 1.3 7.5.9 2.4 2 4.5 3.6 6.3s3.5 3.2 5.9 4.3 5 1.6 7.8 1.6c3 0 6-.7 9-2.2 3-1.4 5.4-3.3 7.4-5.7l15.1 13c-3.6 4.4-8.1 7.9-13.5 10.7s-11.4 4.1-18 4.1c-3.7-.2-7.1-.6-10.5-1.4zM351.8 94.8v20.8c-1.1-.1-2.4-.1-4.1-.1-3.6 0-6.4.9-8.2 2.8s-2.8 4.4-2.8 7.6v23.3h-19.4V96h19.4v7.3h.2c1.9-2.7 4.1-4.8 6.7-6.2s5.3-2.2 8.2-2.2v-.1z" class="st2"/><path d="M408.4 96 381 170.8h-18.9l9-25.4L350.8 96h20l9 25.2h.2l8.5-25.2h19.9zM450.9 95.8c2 .6 4 1.5 5.7 2.6 1.7 1.1 3.3 2.5 4.7 4.2s2.6 3.5 3.6 5.5 1.8 4.3 2.3 6.8.8 5 .8 7.7c0 5.4-1 10.2-3.1 14.5s-5 7.5-8.8 9.8-8 3.5-12.9 3.5c-5.5 0-9.9-1.9-13.2-5.7v26.1h-19.4V96h19.5v5.4h.2c3.7-4.3 8.5-6.5 14.3-6.5 2.1-.1 4.2.3 6.3.9zm-5 34.6c1.8-2 2.7-4.6 2.7-7.8s-.9-5.7-2.7-7.7-4-3-6.8-3c-2.9 0-5.2 1-7.1 3s-2.8 4.6-2.8 7.7c0 3.2.9 5.8 2.8 7.8 1.8 2 4.2 2.9 7.1 2.9 2.7.1 5-.9 6.8-2.9zM484.1 149.3c-1.9-.7-3.6-1.8-5-3.2-1.4-1.4-2.6-3.3-3.4-5.6s-1.2-4.9-1.2-7.9v-21.1h-5.8V96h5.8V79.2l19.4-2V96h11.6v15.4h-11.6v16.9c0 .7 0 1.4.1 1.9.1.6.2 1.1.4 1.7.2.6.6 1 1.1 1.3s1.1.5 1.9.5c1.4 0 2.7-.3 3.9-.9l4.7 13.5c-2.3 1.3-4.6 2.3-6.9 2.9-2.3.7-5.2 1-8.7 1-2.3.2-4.4-.2-6.3-.9z" class="st2"/><path d="M519.2 146.9c-4.4-2.3-7.9-5.6-10.4-9.8s-3.7-9-3.7-14.4 1.2-10.2 3.7-14.4c2.5-4.2 5.9-7.5 10.4-9.8 4.4-2.3 9.5-3.5 15.2-3.5 5.7 0 10.7 1.2 15.1 3.5s7.9 5.6 10.4 9.8c2.5 4.2 3.7 9 3.7 14.4s-1.2 10.2-3.7 14.4c-2.5 4.2-5.9 7.5-10.4 9.8s-9.5 3.5-15.1 3.5c-5.7 0-10.7-1.2-15.2-3.5zm22.1-16.7c1.8-2 2.8-4.5 2.8-7.6 0-3.1-.9-5.7-2.7-7.6-1.8-2-4.1-2.9-7-2.9-1.4 0-2.7.3-3.9.8s-2.2 1.3-3.1 2.2c-.8.9-1.5 2-2 3.3s-.7 2.7-.7 4.2c0 1.2.2 2.3.5 3.4s.8 2.1 1.3 2.9c.6.9 1.3 1.6 2.1 2.2s1.7 1.1 2.7 1.5c1 .3 2 .5 3.1.5 2.7.1 5.1-.9 6.9-2.9z" class="st2"/><path d="M22.8 162.3h52.5v18.9h-32v11.9h25.1v18.4H43.2v11.1h34.4v18.8H22.8v-79.1zM170.3 209.5v31.9h-19.8V214c0-.9 0-1.7-.1-2.4s-.1-1.5-.3-2.2c-.1-.7-.3-1.4-.5-2s-.5-1.1-.8-1.7c-.3-.5-.7-.9-1.2-1.2s-1-.6-1.6-.8-1.3-.3-2-.3c-2.1 0-3.9.9-5.2 2.7s-2 4.4-2 8v27.4h-19.9V214c0-1.6-.1-2.9-.3-4.2-.2-1.2-.5-2.3-1-3.3s-1.2-1.8-2-2.3-2-.8-3.2-.8c-2.3 0-4.1.9-5.5 2.7s-2.1 4.4-2.1 8v27.4h-20V187h19.9v6.2h.1c1.9-2.4 4.1-4.2 6.6-5.5 2.5-1.2 5.2-1.9 8-1.9 7.2 0 12.5 2.6 15.6 7.7h.2c4.3-5.1 10.2-7.7 17.6-7.7 13 0 19.5 7.9 19.5 23.7zM229.3 219h-35.7c.4 2.5 1.7 4.5 3.7 5.8s4.6 2 7.6 2c4.5 0 8.7-2 12.6-6l10.3 11.3c-2.5 3.1-5.9 5.6-10.2 7.5s-9.2 2.9-14.8 2.9c-5.4 0-10.3-1.2-14.6-3.6s-7.8-5.7-10.2-10.1c-2.5-4.4-3.7-9.3-3.7-14.8 0-5.4 1.2-10.3 3.6-14.6s5.8-7.7 10.1-10.1c4.3-2.4 9.2-3.6 14.6-3.6 3.9 0 7.5.7 10.9 2.1 3.4 1.4 6.3 3.3 8.7 5.7s4.3 5.4 5.7 8.9 2.1 7.2 2.1 11.3c-.2 2.1-.4 3.9-.7 5.3zm-32.7-16.2c-1.6 1.3-2.6 3.1-3 5.4h16.9c-.2-1.1-.6-2.1-1.1-3-.5-.9-1.1-1.7-1.8-2.3s-1.5-1.1-2.4-1.4c-.9-.3-1.9-.5-3-.5-2.1-.1-4 .6-5.6 1.8zM269.5 185.8V207c-1.1-.1-2.5-.1-4.2-.1-3.7 0-6.5 1-8.4 2.9s-2.9 4.5-2.9 7.8v23.8h-19.9v-54.5H254v7.4h.2c1.9-2.8 4.2-4.9 6.8-6.4s5.4-2.2 8.4-2.2h.1zM327.8 186.9v46.6c0 3.8-.3 7.2-.9 10.3-.6 3.1-1.6 5.9-3.1 8.5-1.5 2.6-3.3 4.8-5.6 6.6s-5.1 3.2-8.6 4.2-7.4 1.5-11.9 1.5c-4.7 0-8.8-.4-12.2-1.1s-6.9-2-10.4-3.9l4.4-15.6c2 1.2 4.4 2.3 7.4 3.1 3 .9 5.8 1.3 8.3 1.3 4.2 0 7.5-.8 9.8-2.5s3.5-3.8 3.5-6.3v-4.9h-.2c-3.5 3.8-8.3 5.7-14.4 5.7-4.7 0-8.9-1.2-12.7-3.5s-6.6-5.5-8.7-9.6c-2-4-3.1-8.6-3.1-13.6 0-4 .6-7.7 1.8-11.2 1.2-3.5 2.9-6.4 4.9-8.9s4.5-4.3 7.4-5.7 6-2.1 9.2-2.1c6.1 0 11.1 2.1 14.9 6.5h.2V187l20-.1zm-21.7 33.2c1.8-1.8 2.7-4.1 2.7-7 0-2.8-.9-5.1-2.8-7-1.9-1.8-4.1-2.7-6.8-2.7s-5 .9-6.9 2.7c-1.9 1.8-2.8 4.2-2.8 7 0 2.9.9 5.2 2.8 7 1.9 1.8 4.1 2.7 6.9 2.7s5-.9 6.9-2.7zM387.2 219h-35.7c.4 2.5 1.7 4.5 3.7 5.8s4.6 2 7.6 2c4.5 0 8.7-2 12.5-6l10.3 11.3c-2.5 3.1-5.9 5.6-10.2 7.5-4.3 1.9-9.2 2.9-14.8 2.9-5.4 0-10.3-1.2-14.6-3.6s-7.8-5.7-10.2-10.1c-2.5-4.4-3.7-9.3-3.7-14.8 0-5.4 1.2-10.3 3.6-14.6s5.8-7.7 10.1-10.1c4.3-2.4 9.2-3.6 14.6-3.6 3.9 0 7.5.7 10.9 2.1 3.4 1.4 6.3 3.3 8.7 5.7s4.3 5.4 5.7 8.9 2.1 7.2 2.1 11.3c-.1 2.1-.3 3.9-.6 5.3zm-32.7-16.2c-1.6 1.3-2.6 3.1-3 5.4h17c-.2-1.1-.6-2.1-1.1-3-.5-.9-1.1-1.7-1.8-2.3s-1.5-1.1-2.4-1.4c-.9-.3-1.9-.5-3-.5-2.2-.1-4.1.6-5.7 1.8zM432.8 186.2c1.6.3 3.2.8 4.6 1.5 1.5.7 2.8 1.6 3.9 2.8s2.1 2.6 2.9 4.2c.8 1.6 1.5 3.6 1.9 5.9s.6 4.9.6 7.8v33h-19.9v-28.2c0-2.5-.3-4.5-.8-6s-1.3-2.4-2.3-3c-1-.6-2.3-.8-4-.8-2.5 0-4.4.9-5.8 2.6-1.4 1.8-2.1 4.4-2.1 8v27.4H392v-54.5h19.9v6h.1c2-2.3 4.3-4.1 7-5.3 2.7-1.2 5.5-1.8 8.5-1.8 1.9 0 3.6.1 5.3.4zM464.7 239c-4.4-2.4-7.8-5.7-10.2-10.1-2.5-4.3-3.7-9.2-3.7-14.8 0-5.5 1.3-10.5 3.8-14.8s6-7.7 10.6-10.1 9.7-3.6 15.5-3.6c4.7 0 9.1 1 13.4 2.9 4.2 1.9 7.7 4.7 10.4 8.3L491.3 208c-2.8-3.3-6.1-4.9-10.1-4.9-3.1 0-5.6 1-7.5 3s-2.9 4.5-2.9 7.7 1 5.8 3 7.8 4.5 3 7.6 3c4 0 7.3-1.5 9.8-4.4l13.5 11.8c-2.5 3.1-5.9 5.6-10.3 7.5-4.4 1.9-9.4 2.9-15.1 2.9-5.4.1-10.3-1.1-14.6-3.4zM562 186.9l-28 76.5h-19.3l9.2-26-20.9-50.5h20.5l9.2 25.8h.2l8.7-25.8H562z" class="st1"/></svg>