<svg width="14" height="20" viewBox="0 0 14 20" fill="none" xmlns="http://www.w3.org/2000/svg">
<path fill-rule="evenodd" clip-rule="evenodd" d="M6.66668 0C10.3486 0 13.3333 2.98477 13.3333 6.66667C13.3333 7.77991 13.0613 8.82886 12.5782 9.75183L6.66668 20L0.892115 10.0004C0.32382 9.01906 0 7.88114 0 6.66667C0 2.98477 2.98479 0 6.66668 0ZM6.66668 1.90477C4.03674 1.90477 1.90475 4.03676 1.90475 6.66667C1.90475 7.42291 2.07922 8.14853 2.40937 8.80359L2.56937 9.09583L6.66668 16.1905L10.7929 9.04584C11.2078 8.32946 11.4286 7.51745 11.4286 6.66667C11.4286 4.03676 9.29659 1.90477 6.66668 1.90477ZM6.66668 3.80952C8.24464 3.80952 9.52383 5.08871 9.52383 6.66667C9.52383 8.24463 8.24464 9.52381 6.66668 9.52381C5.08872 9.52381 3.80954 8.24463 3.80954 6.66667C3.80954 5.08871 5.08872 3.80952 6.66668 3.80952ZM6.66668 5.71428C6.14067 5.71428 5.71429 6.14069 5.71429 6.66667C5.71429 7.19265 6.14067 7.61906 6.66668 7.61906C7.19266 7.61906 7.61904 7.19265 7.61904 6.66667C7.61904 6.14069 7.19266 5.71428 6.66668 5.71428Z" fill="#C0B7E8"/>
</svg>
