<svg width="22" height="22" viewBox="0 0 22 22" fill="none" xmlns="http://www.w3.org/2000/svg">
<path d="M13.7777 4.8889C14.5968 5.04868 15.4098 5.4099 15.9999 6C16.59 6.5901 16.9512 7.40316 17.111 8.22223M14.3333 1C16.035 1.18904 17.5662 2.0123 18.7777 3.22224C19.9892 4.43213 20.8087 5.96519 20.9999 7.66666M20.9993 15.974V18.9849C21.004 20.1359 19.9691 21.0969 18.8071 20.9922C8.77778 21 0.999999 13.15 1.00785 3.18798C0.903194 2.03216 1.85953 1.00118 3.00901 1.0001H6.02583C6.51387 0.995304 6.987 1.16778 7.35703 1.48538C8.40901 2.38834 9.08571 5.45306 8.82533 6.67141C8.62207 7.62264 7.6632 8.28809 7.01132 8.93871C8.44286 11.4513 10.5274 13.5317 13.045 14.9604C13.6969 14.3098 14.3637 13.3529 15.3168 13.15C16.5394 12.8898 19.6239 13.5674 20.5232 14.6267C20.8421 15.0023 21.0115 15.4818 20.9993 15.974Z" stroke="#C0B7E8" stroke-width="2" stroke-linecap="round" stroke-linejoin="round"/>
</svg>
