<svg width="21" height="17" viewBox="0 0 21 17" fill="none" xmlns="http://www.w3.org/2000/svg">
<g clip-path="url(#clip0_712_33)">
<mask id="mask0_712_33" style="mask-type:luminance" maskUnits="userSpaceOnUse" x="0" y="0" width="21" height="17">
<path d="M0 0H21V17H0V0Z" fill="white"/>
</mask>
<g mask="url(#mask0_712_33)">
<path d="M19.031 0.531006H1.97C0.883 0.531006 0 1.42501 0 2.52301V14.477C0 15.575 0.883 16.469 1.969 16.469H19.03C20.116 16.469 20.999 15.575 20.999 14.477V2.52301C20.999 1.42501 20.117 0.531006 19.031 0.531006ZM19.031 1.85901C19.121 1.85901 19.205 1.87901 19.283 1.91101L10.5 9.61301L1.717 1.91101C1.79667 1.87698 1.88237 1.85929 1.969 1.85901H19.031ZM19.031 15.141H1.97C1.88316 15.1406 1.79725 15.1231 1.71719 15.0894C1.63714 15.0558 1.56451 15.0066 1.50347 14.9449C1.44244 14.8831 1.3942 14.8099 1.36151 14.7294C1.32883 14.649 1.31234 14.5628 1.313 14.476V3.31401L10.071 10.994C10.1897 11.0988 10.3427 11.1566 10.501 11.1566C10.6593 11.1566 10.8123 11.0988 10.931 10.994L19.689 3.31401V14.477C19.6895 14.5638 19.6729 14.6498 19.6402 14.7301C19.6075 14.8105 19.5592 14.8836 19.4982 14.9452C19.4371 15.0069 19.3646 15.0559 19.2846 15.0895C19.2046 15.1231 19.1178 15.1406 19.031 15.141Z" fill="#C0B7E8"/>
</g>
</g>
<defs>
<clipPath id="clip0_712_33">
<rect width="21" height="17" fill="white"/>
</clipPath>
</defs>
</svg>
