<svg width="17" height="17" viewBox="0 0 17 17" fill="none" xmlns="http://www.w3.org/2000/svg">
<g clip-path="url(#clip0_712_25)">
<mask id="mask0_712_25" style="mask-type:luminance" maskUnits="userSpaceOnUse" x="0" y="0" width="17" height="17">
<path d="M0 0H17V17H0V0Z" fill="white"/>
</mask>
<g mask="url(#mask0_712_25)">
<path d="M15.842 11.306C14.978 10.612 14.186 10.274 13.42 10.274C12.312 10.274 11.514 10.979 10.792 11.701C10.7506 11.7423 10.701 11.7745 10.6464 11.7955C10.5918 11.8165 10.5334 11.8259 10.475 11.823C9.86699 11.823 8.79499 11.061 7.29299 9.55704C5.52399 7.79004 4.85499 6.66404 5.30499 6.21404C6.52399 4.99604 6.90499 3.77404 5.03799 1.45404C4.36999 0.621041 3.71699 0.217041 3.03999 0.217041C2.12799 0.218041 1.43399 0.947041 0.821994 1.59004C0.715994 1.70004 0.615994 1.80604 0.517994 1.90404C-0.173006 2.59504 -0.172006 4.10404 0.518994 5.93904C1.27899 7.95304 2.77899 10.143 4.74199 12.107C6.26099 13.625 7.91299 14.853 9.51999 15.677C10.924 16.396 12.285 16.781 13.354 16.781C14.023 16.781 14.566 16.636 14.924 16.339C15.653 15.737 17.009 14.621 17 13.295C16.995 12.585 16.605 11.919 15.842 11.306Z" fill="#C0B7E8"/>
</g>
</g>
<defs>
<clipPath id="clip0_712_25">
<rect width="17" height="17" fill="white"/>
</clipPath>
</defs>
</svg>
