<svg width="17" height="17" viewBox="0 0 17 17" fill="none" xmlns="http://www.w3.org/2000/svg">
<g clip-path="url(#clip0_712_31)">
<path d="M0.300002 8.19704L4.217 9.65904L5.734 14.534C5.7563 14.6062 5.79597 14.6718 5.84954 14.725C5.9031 14.7782 5.96892 14.8174 6.04121 14.8393C6.1135 14.8611 6.19004 14.8648 6.26411 14.8501C6.33818 14.8355 6.40751 14.8028 6.466 14.755L8.649 12.975C8.76037 12.8843 8.89864 12.8329 9.04226 12.8289C9.18588 12.8249 9.32678 12.8686 9.443 12.953L13.382 15.813C13.4444 15.8582 13.5172 15.887 13.5936 15.8969C13.67 15.9067 13.7477 15.8973 13.8196 15.8695C13.8914 15.8417 13.9552 15.7963 14.0051 15.7375C14.0549 15.6788 14.0893 15.6085 14.105 15.533L16.99 1.65604C17.0068 1.57482 17.0015 1.49056 16.9745 1.41212C16.9475 1.33368 16.8999 1.26395 16.8367 1.21024C16.7735 1.15654 16.697 1.12084 16.6152 1.10691C16.5335 1.09297 16.4494 1.10131 16.372 1.13104L0.296002 7.33304C0.208478 7.36668 0.133262 7.42616 0.080348 7.50357C0.0274339 7.58098 -0.000673287 7.67266 -0.000239187 7.76642C0.000194912 7.86019 0.0291498 7.9516 0.0827783 8.02852C0.136407 8.10543 0.21217 8.16421 0.300002 8.19704ZM5.49 8.88004L13.145 4.16504C13.282 4.08104 13.424 4.26704 13.305 4.37604L6.989 10.25C6.76703 10.4565 6.62354 10.7336 6.583 11.034L6.368 12.629C6.339 12.842 6.04 12.863 5.981 12.657L5.153 9.74804C5.10695 9.58655 5.11495 9.41443 5.17579 9.2579C5.23663 9.10138 5.34697 8.96804 5.49 8.88004Z" fill="#C0B7E8"/>
</g>
<defs>
<clipPath id="clip0_712_31">
<rect width="17" height="17" fill="white"/>
</clipPath>
</defs>
</svg>
