<svg width="55" height="55" viewBox="0 0 55 55" fill="none" xmlns="http://www.w3.org/2000/svg">
<path d="M0.971478 26.5182L13.6446 31.2482L18.5498 47.0235C18.8637 48.0339 20.0992 48.4073 20.9192 47.7369L27.9834 41.978C28.7239 41.3747 29.7786 41.3446 30.5525 41.9063L43.2938 51.1568C44.171 51.7944 45.4139 51.3137 45.6339 50.2537L54.9675 5.357C55.2077 4.19906 54.0699 3.23308 52.9674 3.65951L0.956628 23.7237C-0.326889 24.2187 -0.315706 26.0359 0.971478 26.5182ZM17.7593 28.7303L42.5273 13.4757C42.9724 13.2024 43.4304 13.8043 43.0481 14.1588L22.6074 33.1595C21.8889 33.8283 21.4254 34.7233 21.2942 35.6948L20.5979 40.8549C20.5056 41.5439 19.5378 41.6123 19.3477 40.9455L16.6698 31.5359C16.363 30.4627 16.81 29.3163 17.7593 28.7303Z" fill="#302C42"/>
</svg>
