<svg width="17" height="17" viewBox="0 0 17 17" fill="none" xmlns="http://www.w3.org/2000/svg">
<g clip-path="url(#clip0_711_19)">
<mask id="mask0_711_19" style="mask-type:luminance" maskUnits="userSpaceOnUse" x="0" y="0" width="17" height="17">
<path d="M0 0H17V17H0V0Z" fill="white"/>
</mask>
<g mask="url(#mask0_711_19)">
<path d="M8.50095 8.828C9.67064 8.82483 10.7915 8.35877 11.6186 7.53167C12.4457 6.70457 12.9118 5.58369 12.9149 4.414C12.9118 3.24431 12.4457 2.12343 11.6186 1.29633C10.7915 0.469229 9.67064 0.00316705 8.50095 0C7.33125 0.00316705 6.21037 0.469229 5.38327 1.29633C4.55617 2.12343 4.09011 3.24431 4.08694 4.414C4.09011 5.58369 4.55617 6.70457 5.38327 7.53167C6.21037 8.35877 7.33125 8.82483 8.50095 8.828ZM16.0759 12.355C15.9592 12.0692 15.8106 11.7975 15.6329 11.545C14.7459 10.235 13.3779 9.367 11.8359 9.155C11.6391 9.13014 11.4399 9.17816 11.2759 9.29C10.4724 9.88249 9.49929 10.2002 8.50095 10.196C7.5026 10.2002 6.52948 9.88249 5.72594 9.29C5.64684 9.23032 5.5563 9.18754 5.45997 9.16432C5.36364 9.1411 5.26356 9.13792 5.16594 9.155C4.3998 9.26103 3.66502 9.52901 3.0105 9.9411C2.35598 10.3532 1.79672 10.9 1.36994 11.545C1.19594 11.795 1.04194 12.085 0.925945 12.355C0.868945 12.471 0.887945 12.605 0.945945 12.721C1.09994 12.991 1.29294 13.261 1.46594 13.492C1.73594 13.858 2.02494 14.186 2.35294 14.494C2.62294 14.764 2.93095 15.014 3.23895 15.265C4.75289 16.3953 6.5926 17.0041 8.48195 17C10.3709 17 12.2019 16.402 13.7249 15.265C14.0377 15.0291 14.3338 14.7718 14.6109 14.495C14.9199 14.186 15.2279 13.858 15.4979 13.492C15.6909 13.242 15.8639 12.991 16.0179 12.722C16.1149 12.605 16.1339 12.47 16.0759 12.355Z" fill="#C0B7E8"/>
</g>
</g>
<defs>
<clipPath id="clip0_711_19">
<rect width="17" height="17" fill="white"/>
</clipPath>
</defs>
</svg>
