<svg width="60" height="60" viewBox="0 0 60 60" fill="none" xmlns="http://www.w3.org/2000/svg">
<path d="M16.3516 7.79321C15.7448 7.79321 15.2529 8.28502 15.2529 8.89213C15.2529 9.49923 15.7448 9.99138 16.3516 9.99138H16.362C16.9688 9.99138 17.4552 9.49923 17.4552 8.89213C17.4552 8.28502 16.9585 7.79321 16.3516 7.79321Z" fill="white"/>
<path d="M29.9693 52.4192C29.3625 52.4192 28.8706 52.9117 28.8706 53.5184C28.8706 54.1255 29.3625 54.6174 29.9693 54.6174H29.9796C30.5865 54.6174 31.0732 54.1255 31.0732 53.5184C31.0732 52.9117 30.5761 52.4192 29.9693 52.4192Z" fill="white"/>
<path d="M15.4573 19.1596L11.6915 16.9865C10.9533 16.5608 10.0717 16.5611 9.33346 16.9876C8.59559 17.414 8.15527 18.1777 8.15527 19.0305V23.3752C8.15527 24.2277 8.59559 24.9914 9.33311 25.4175C9.70256 25.6315 10.1078 25.7379 10.513 25.7379C10.9176 25.7379 11.3217 25.6319 11.6909 25.4189L15.4562 23.2472C16.1955 22.8211 16.6368 22.0571 16.6368 21.2035C16.6368 20.3504 16.1958 19.586 15.4573 19.1596ZM14.3589 21.3429L10.5935 23.5146C10.5736 23.526 10.5134 23.5611 10.4325 23.5146C10.3524 23.4685 10.3524 23.3983 10.3524 23.3752V19.0305C10.3524 19.0078 10.3524 18.9376 10.4325 18.8915C10.4631 18.8736 10.4907 18.8677 10.5144 18.8677C10.5529 18.8677 10.5811 18.8839 10.5935 18.8915L14.3596 21.0638C14.3792 21.0755 14.4397 21.1106 14.4397 21.2035C14.4397 21.2965 14.3792 21.3312 14.3589 21.3429Z" fill="white"/>
<path d="M57.5495 35.3927L55.8464 34.4084C55.8901 34.0408 55.9117 33.6701 55.9117 33.2991C55.9117 32.9285 55.8901 32.5571 55.8464 32.1895L57.5495 31.2056C57.8023 31.06 57.9864 30.8198 58.0617 30.5382C58.137 30.2564 58.0975 29.9563 57.9516 29.704L55.381 25.2485C55.0772 24.7229 54.4057 24.5426 53.8804 24.8461L52.1766 25.8301C51.5808 25.3823 50.9386 25.011 50.2558 24.7191V22.7526C50.2558 22.1455 49.7639 21.6533 49.157 21.6533H49.0907V6.2541C49.0907 3.83016 47.1189 1.85742 44.6958 1.85742H15.2525C12.8294 1.85742 10.858 3.83016 10.858 6.2541V12.1899H2.94784C2.34103 12.1899 1.84912 12.6817 1.84912 13.2888V29.1169C1.84912 29.724 2.34103 30.2161 2.94784 30.2161H10.858V53.7379C10.858 56.1626 12.8294 58.1346 15.2525 58.1346H44.6958C47.1189 58.1346 49.0907 56.1626 49.0907 53.7379V44.9446H49.1567C49.7635 44.9446 50.2551 44.4528 50.2551 43.8457V41.8795C50.9386 41.5869 51.5808 41.2156 52.1766 40.7681L53.8798 41.7518C54.4057 42.0553 55.0772 41.8757 55.3806 41.3494L57.9516 36.8946C58.255 36.3684 58.0751 35.6962 57.5495 35.3927ZM4.04656 14.3881H20.3062V28.0179H4.04656V14.3881ZM44.6958 55.9364H15.2525C14.041 55.9364 13.0551 54.9504 13.0551 53.7379V51.0999H46.8932V53.7379C46.8932 54.9504 45.9073 55.9364 44.6958 55.9364ZM46.8932 48.9018H13.0551V30.2161H21.4049C22.0117 30.2161 22.5036 29.724 22.5036 29.1169V13.2888C22.5036 12.6817 22.0117 12.1899 21.4049 12.1899H13.0551V6.2541C13.0551 5.04196 14.041 4.05594 15.2525 4.05594H44.6958C45.9073 4.05594 46.8932 5.04196 46.8932 6.2541V7.7932H20.7561C20.149 7.7932 19.6574 8.28501 19.6574 8.89211C19.6574 9.49922 20.149 9.99137 20.7561 9.99137H46.8932V21.6533H44.0143C43.4082 21.6533 42.9159 22.1455 42.9159 22.7526V24.7191C42.2331 25.011 41.5905 25.3827 40.9951 25.8301L39.2916 24.8461C38.766 24.5426 38.0938 24.7229 37.7908 25.2485L35.2197 29.704C35.0739 29.9563 35.0343 30.2564 35.11 30.5382C35.1853 30.8198 35.3694 31.06 35.6219 31.2056L37.3253 32.1895C37.282 32.5571 37.2596 32.9285 37.2596 33.2991C37.2596 33.6701 37.2813 34.0408 37.3253 34.409L35.6219 35.393C35.0962 35.6966 34.9163 36.3684 35.2197 36.8946L37.7908 41.3494C38.0938 41.875 38.766 42.0553 39.2916 41.7518L40.9951 40.7681C41.5905 41.2156 42.2331 41.5869 42.9159 41.8795V43.8457C42.9159 44.4528 43.4082 44.9446 44.0143 44.9446H46.8932V48.9018ZM53.5653 31.8399C53.6644 32.3176 53.7146 32.8083 53.7146 33.2991C53.7146 33.7899 53.6644 34.281 53.5653 34.758C53.4687 35.2226 53.6813 35.6962 54.0913 35.9337L55.5 36.7469L54.0273 39.2986L52.6173 38.4839C52.2062 38.2465 51.6895 38.3002 51.3359 38.6168C50.5977 39.2769 49.7494 39.7684 48.8137 40.0757C48.3628 40.2244 48.058 40.6449 48.058 41.1199V42.7464H45.113V41.1199C45.113 40.6449 44.809 40.2244 44.3576 40.0757C43.4223 39.7677 42.5737 39.2769 41.8355 38.6168C41.4822 38.3002 40.9648 38.2465 40.5537 38.4839L39.144 39.2986L37.6714 36.7469L39.0797 35.9337C39.4904 35.6962 39.7027 35.222 39.606 34.758C39.507 34.281 39.4567 33.7899 39.4567 33.2991C39.4567 32.8083 39.507 32.3169 39.606 31.8399C39.7027 31.3756 39.4904 30.902 39.0797 30.6646L37.6714 29.8513L39.144 27.2993L40.5537 28.114C40.9648 28.3514 41.4822 28.2977 41.8355 27.9815C42.5737 27.3207 43.4223 26.8299 44.3576 26.5222C44.8083 26.3739 45.113 25.953 45.113 25.478V23.8518H48.058V25.478C48.058 25.953 48.3628 26.3742 48.8137 26.5222C49.7487 26.8299 50.5974 27.321 51.3356 27.9815C51.6895 28.2977 52.2062 28.3514 52.6173 28.114L54.027 27.2993L55.4996 29.8513L54.0913 30.6649C53.6813 30.902 53.4687 31.3756 53.5653 31.8399Z" fill="white"/>
<path d="M46.586 28.5042C43.9431 28.5042 41.7935 30.6552 41.7935 33.299C41.7935 35.9425 43.9431 38.0936 46.586 38.0936C49.2282 38.0936 51.3778 35.9425 51.3778 33.299C51.3778 30.6552 49.2282 28.5042 46.586 28.5042ZM46.586 35.8954C45.1546 35.8954 43.9909 34.7307 43.9909 33.299C43.9909 31.8673 45.1546 30.7027 46.586 30.7027C48.0167 30.7027 49.1811 31.8673 49.1811 33.299C49.1811 34.7307 48.0167 35.8954 46.586 35.8954Z" fill="white"/>
<path d="M32.3915 38.3501H17.6334C17.0266 38.3501 16.5347 38.8423 16.5347 39.4494C16.5347 40.0561 17.0266 40.5483 17.6334 40.5483H32.3915C32.9983 40.5483 33.4902 40.0561 33.4902 39.4494C33.4902 38.8423 32.9983 38.3501 32.3915 38.3501Z" fill="white"/>
<path d="M25.0123 42.7468H17.6329C17.0261 42.7468 16.5342 43.239 16.5342 43.8457C16.5342 44.4528 17.0261 44.9447 17.6329 44.9447H25.0123C25.6191 44.9447 26.1107 44.4528 26.1107 43.8457C26.1107 43.239 25.6191 42.7468 25.0123 42.7468Z" fill="white"/>
<path d="M29.406 42.7468C29.1174 42.7468 28.8336 42.8642 28.6293 43.069C28.4249 43.2734 28.3076 43.5566 28.3076 43.8457C28.3076 44.1348 28.4249 44.4184 28.6293 44.6229C28.8336 44.8269 29.1174 44.9447 29.406 44.9447C29.6963 44.9447 29.9787 44.8276 30.1841 44.6229C30.3884 44.4184 30.5047 44.1348 30.5047 43.8457C30.5047 43.5566 30.3884 43.2734 30.1841 43.069C29.9787 42.8642 29.6963 42.7468 29.406 42.7468Z" fill="white"/>
<path d="M27.3014 14.3881H42.0594C42.6666 14.3881 43.1582 13.896 43.1582 13.2889C43.1582 12.6818 42.6666 12.1899 42.0594 12.1899H27.3014C26.6945 12.1899 26.2026 12.6818 26.2026 13.2889C26.2026 13.896 26.6945 14.3881 27.3014 14.3881Z" fill="white"/>
<path d="M35.7786 17.6856C35.7786 17.0785 35.2871 16.5867 34.6803 16.5867H27.3009C26.6941 16.5867 26.2021 17.0785 26.2021 17.6856C26.2021 18.2927 26.6941 18.7848 27.3009 18.7848H34.6803C35.2871 18.7848 35.7786 18.2927 35.7786 17.6856Z" fill="white"/>
</svg>
