<svg width="30" height="30" viewBox="0 0 30 30" fill="none" xmlns="http://www.w3.org/2000/svg">
<g clip-path="url(#clip0_686_19)">
<path d="M8.17582 3.89648C7.87242 3.89648 7.62646 4.14239 7.62646 4.44594C7.62646 4.74949 7.87242 4.99557 8.17582 4.99557H8.18101C8.48441 4.99557 8.72761 4.74949 8.72761 4.44594C8.72761 4.14239 8.47927 3.89648 8.17582 3.89648Z" fill="white"/>
<path d="M14.9847 26.2097C14.6813 26.2097 14.4353 26.456 14.4353 26.7593C14.4353 27.0629 14.6813 27.3088 14.9847 27.3088H14.9898C15.2933 27.3088 15.5366 27.0629 15.5366 26.7593C15.5366 26.456 15.2881 26.2097 14.9847 26.2097Z" fill="white"/>
<path d="M7.72865 9.5798L5.84575 8.49325C5.47665 8.2804 5.03585 8.28055 4.66673 8.4938C4.2978 8.707 4.07764 9.08885 4.07764 9.51525V11.6876C4.07764 12.1139 4.2978 12.4957 4.66656 12.7088C4.85128 12.8158 5.0539 12.869 5.2565 12.869C5.4588 12.869 5.66085 12.816 5.84545 12.7095L7.7281 11.6236C8.09775 11.4106 8.3184 11.0286 8.3184 10.6018C8.3184 10.1752 8.0979 9.793 7.72865 9.5798ZM7.17945 10.6715L5.29675 11.7573C5.2868 11.763 5.2567 11.7806 5.21625 11.7573C5.1762 11.7343 5.1762 11.6992 5.1762 11.6876V9.51525C5.1762 9.5039 5.1762 9.4688 5.21625 9.44575C5.23155 9.4368 5.24535 9.43385 5.2572 9.43385C5.27645 9.43385 5.29055 9.44195 5.29675 9.44575L7.1798 10.5319C7.1896 10.5378 7.21985 10.5553 7.21985 10.6018C7.21985 10.6483 7.1896 10.6656 7.17945 10.6715Z" fill="white"/>
<path d="M28.7747 17.6964L27.9232 17.2042C27.9451 17.0204 27.9559 16.8351 27.9559 16.6496C27.9559 16.4643 27.9451 16.2786 27.9232 16.0948L28.7747 15.6028C28.9011 15.53 28.9932 15.4099 29.0308 15.2691C29.0685 15.1282 29.0487 14.9782 28.9758 14.852L27.6905 12.6243C27.5386 12.3615 27.2029 12.2713 26.9402 12.4231L26.0883 12.9151C25.7904 12.6912 25.4693 12.5055 25.1279 12.3596V11.3763C25.1279 11.0728 24.882 10.8267 24.5785 10.8267H24.5453V3.12705C24.5453 1.91508 23.5595 0.928711 22.3479 0.928711H7.62625C6.4147 0.928711 5.429 1.91508 5.429 3.12705V6.09495H1.47392C1.17052 6.09495 0.924561 6.34085 0.924561 6.6444V14.5585C0.924561 14.862 1.17052 15.1081 1.47392 15.1081H5.429V26.8689C5.429 28.0813 6.4147 29.0673 7.62625 29.0673H22.3479C23.5595 29.0673 24.5453 28.0813 24.5453 26.8689V22.4723H24.5784C24.8818 22.4723 25.1276 22.2264 25.1276 21.9229V20.9398C25.4693 20.7935 25.7904 20.6078 26.0883 20.3841L26.9399 20.8759C27.2028 21.0277 27.5386 20.9379 27.6903 20.6747L28.9758 18.4473C29.1275 18.1842 29.0375 17.8481 28.7747 17.6964ZM2.02328 7.19405H10.1531V14.009H2.02328V7.19405ZM22.3479 27.9682H7.62625C7.0205 27.9682 6.52755 27.4752 6.52755 26.8689V25.5499H23.4466V26.8689C23.4466 27.4752 22.9537 27.9682 22.3479 27.9682ZM23.4466 24.4509H6.52755V15.1081H10.7025C11.0059 15.1081 11.2518 14.862 11.2518 14.5585V6.6444C11.2518 6.34085 11.0059 6.09495 10.7025 6.09495H6.52755V3.12705C6.52755 2.52098 7.0205 2.02797 7.62625 2.02797H22.3479C22.9537 2.02797 23.4466 2.52098 23.4466 3.12705V3.8966H10.3781C10.0745 3.8966 9.8287 4.14251 9.8287 4.44606C9.8287 4.74961 10.0745 4.99569 10.3781 4.99569H23.4466V10.8267H22.0072C21.7041 10.8267 21.458 11.0728 21.458 11.3763V12.3596C21.1166 12.5055 20.7952 12.6914 20.4975 12.9151L19.6458 12.4231C19.383 12.2713 19.0469 12.3615 18.8954 12.6243L17.6098 14.852C17.5369 14.9782 17.5172 15.1282 17.555 15.2691C17.5927 15.4099 17.6847 15.53 17.8109 15.6028L18.6626 16.0948C18.641 16.2786 18.6298 16.4643 18.6298 16.6496C18.6298 16.8351 18.6406 17.0204 18.6626 17.2045L17.8109 17.6965C17.5481 17.8483 17.4581 18.1842 17.6098 18.4473L18.8954 20.6747C19.0469 20.9375 19.383 21.0277 19.6458 20.8759L20.4975 20.3841C20.7952 20.6078 21.1166 20.7935 21.458 20.9398V21.9229C21.458 22.2264 21.7041 22.4723 22.0072 22.4723H23.4466V24.4509ZM26.7826 15.92C26.8322 16.1588 26.8573 16.4042 26.8573 16.6496C26.8573 16.895 26.8322 17.1405 26.7826 17.379C26.7343 17.6113 26.8407 17.8481 27.0457 17.9669L27.75 18.3735L27.0137 19.6493L26.3086 19.242C26.1031 19.1233 25.8447 19.1501 25.6679 19.3084C25.2988 19.6384 24.8747 19.8842 24.4069 20.0378C24.1814 20.1122 24.029 20.3225 24.029 20.56V21.3732H22.5565V20.56C22.5565 20.3225 22.4045 20.1122 22.1788 20.0378C21.7112 19.8838 21.2868 19.6384 20.9177 19.3084C20.7411 19.1501 20.4824 19.1233 20.2768 19.242L19.572 19.6493L18.8357 18.3735L19.5399 17.9669C19.7452 17.8481 19.8513 17.611 19.803 17.379C19.7535 17.1405 19.7283 16.895 19.7283 16.6496C19.7283 16.4042 19.7535 16.1585 19.803 15.92C19.8513 15.6878 19.7452 15.451 19.5399 15.3323L18.8357 14.9257L19.572 13.6497L20.2768 14.057C20.4824 14.1757 20.7411 14.1489 20.9177 13.9908C21.2868 13.6604 21.7112 13.415 22.1788 13.2611C22.4042 13.187 22.5565 12.9765 22.5565 12.739V11.9259H24.029V12.739C24.029 12.9765 24.1814 13.1871 24.4069 13.2611C24.8744 13.415 25.2987 13.6605 25.6678 13.9908C25.8448 14.1489 26.1031 14.1757 26.3086 14.057L27.0135 13.6497L27.7498 14.9257L27.0457 15.3325C26.8407 15.451 26.7343 15.6878 26.7826 15.92Z" fill="white"/>
<path d="M23.293 14.2522C21.9715 14.2522 20.8967 15.3277 20.8967 16.6496C20.8967 17.9713 21.9715 19.0469 23.293 19.0469C24.6141 19.0469 25.6889 17.9713 25.6889 16.6496C25.6889 15.3277 24.6141 14.2522 23.293 14.2522ZM23.293 17.9478C22.5773 17.9478 21.9954 17.3654 21.9954 16.6496C21.9954 15.9337 22.5773 15.3514 23.293 15.3514C24.0083 15.3514 24.5905 15.9337 24.5905 16.6496C24.5905 17.3654 24.0083 17.9478 23.293 17.9478Z" fill="white"/>
<path d="M16.1957 19.175H8.81668C8.51328 19.175 8.26733 19.4211 8.26733 19.7247C8.26733 20.028 8.51328 20.2741 8.81668 20.2741H16.1957C16.4991 20.2741 16.7451 20.028 16.7451 19.7247C16.7451 19.4211 16.4991 19.175 16.1957 19.175Z" fill="white"/>
<path d="M12.5061 21.3733H8.81644C8.51304 21.3733 8.26709 21.6194 8.26709 21.9227C8.26709 22.2263 8.51304 22.4722 8.81644 22.4722H12.5061C12.8095 22.4722 13.0553 22.2263 13.0553 21.9227C13.0553 21.6194 12.8095 21.3733 12.5061 21.3733Z" fill="white"/>
<path d="M14.703 21.3733C14.5587 21.3733 14.4168 21.432 14.3147 21.5344C14.2125 21.6366 14.1538 21.7782 14.1538 21.9227C14.1538 22.0673 14.2125 22.2091 14.3147 22.3113C14.4168 22.4133 14.5587 22.4722 14.703 22.4722C14.8482 22.4722 14.9894 22.4137 15.0921 22.3113C15.1942 22.2091 15.2524 22.0673 15.2524 21.9227C15.2524 21.7782 15.1942 21.6366 15.0921 21.5344C14.9894 21.432 14.8482 21.3733 14.703 21.3733Z" fill="white"/>
<path d="M13.6507 7.19407H21.0297C21.3333 7.19407 21.5791 6.94802 21.5791 6.64447C21.5791 6.34092 21.3333 6.09497 21.0297 6.09497H13.6507C13.3473 6.09497 13.1013 6.34092 13.1013 6.64447C13.1013 6.94802 13.3473 7.19407 13.6507 7.19407Z" fill="white"/>
<path d="M17.8893 8.84291C17.8893 8.53936 17.6436 8.29346 17.3402 8.29346H13.6505C13.3471 8.29346 13.1011 8.53936 13.1011 8.84291C13.1011 9.14646 13.3471 9.39251 13.6505 9.39251H17.3402C17.6436 9.39251 17.8893 9.14646 17.8893 8.84291Z" fill="white"/>
</g>
<defs>
<clipPath id="clip0_686_19">
<rect width="30" height="30" fill="white"/>
</clipPath>
</defs>
</svg>
