<svg width="60" height="60" viewBox="0 0 60 60" fill="none" xmlns="http://www.w3.org/2000/svg">
<g clip-path="url(#clip0_682_34)">
<path d="M28.0537 9.83447C27.5674 9.83447 27.1733 10.2285 27.1733 10.7148C27.1733 11.2011 27.5674 11.5951 28.0537 11.5951H31.946C32.4323 11.5951 32.8263 11.2011 32.8263 10.7148C32.8263 10.2285 32.4323 9.83447 31.946 9.83447H28.0537Z" fill="white"/>
<path d="M53.3581 23.1538C53.3581 21.0751 51.8104 19.3517 49.8069 19.0732C49.6486 17.8946 48.6388 16.9821 47.4176 16.9821H45.8557C45.6412 15.2884 45.0665 13.6588 44.1596 12.2026C43.9025 11.7898 43.3594 11.6639 42.9469 11.9208C42.5341 12.1779 42.4081 12.7207 42.6651 13.1334C43.6636 14.7365 44.1914 16.5864 44.1914 18.4834V31.9941C44.1914 33.5529 43.8369 35.0303 43.2054 36.3509L41.5276 35.7697C42.1038 34.6343 42.4307 33.3521 42.4307 31.9941V18.4834C42.4307 16.655 41.8493 14.9167 40.7495 13.4567C39.6869 12.0459 38.1765 10.9868 36.4964 10.4743C36.0453 10.3367 35.5535 10.3981 35.1472 10.6427C34.7366 10.8901 34.4492 11.302 34.3586 11.7727L34.173 12.7356C34.1273 12.9729 33.9189 13.1451 33.6772 13.1451H26.3231C26.0814 13.1451 25.8728 12.9728 25.827 12.7356L25.6417 11.7729C25.5513 11.3039 25.2647 10.8939 24.8553 10.6481C24.4421 10.4 23.9402 10.3397 23.4782 10.4822C21.8045 10.9987 20.3003 12.0589 19.2429 13.4673C18.1482 14.9252 17.5695 16.6598 17.5695 18.4835V25.8746C17.5695 26.3609 17.9636 26.7549 18.4499 26.7549C18.9362 26.7549 19.3302 26.3609 19.3302 25.8746V18.4834C19.3302 15.5894 21.175 13.0678 23.9283 12.1862L24.0983 13.0686C24.3034 14.1331 25.2391 14.9057 26.3231 14.9057H33.677C34.7611 14.9057 35.6968 14.133 35.9016 13.0685L36.0716 12.1862C38.7837 13.0566 40.6698 15.6324 40.6698 18.4834V31.9941C40.6698 33.1515 40.3702 34.2398 39.8455 35.1872L37.056 34.2211C37.0813 34.0705 37.0951 33.916 37.0951 33.7584C37.0951 32.2174 35.8415 30.9638 34.3006 30.9638C32.7597 30.9638 31.5061 32.2174 31.5061 33.7584C31.5061 35.2993 32.7597 36.5529 34.3006 36.5529C35.0403 36.5529 35.7132 36.2635 36.2136 35.7926L38.7333 36.6654C37.5356 37.8647 35.8811 38.6076 34.0563 38.6076H25.9436C22.2969 38.6076 19.3301 35.6408 19.3301 31.9942V29.6262C19.3301 29.1399 18.936 28.7459 18.4498 28.7459C17.9635 28.7459 17.5694 29.1399 17.5694 29.6262V31.9942C17.5694 36.6117 21.3261 40.3682 25.9436 40.3682H34.0563C36.6662 40.3682 39.0005 39.1676 40.5374 37.2903L42.2873 37.8965C40.446 40.4568 37.4437 42.129 34.0563 42.129H25.9436C20.3553 42.129 15.8088 37.5826 15.8088 31.9943V18.4834C15.8088 12.8952 20.3551 8.34868 25.9436 8.34868H34.0563C36.3751 8.34868 38.5574 9.11104 40.3671 10.5535C40.7475 10.8564 41.3014 10.7938 41.6043 10.4138C41.9072 10.0336 41.8448 9.47973 41.4646 9.17666C39.3396 7.48314 36.778 6.58802 34.0564 6.58802H25.9437C21.6635 6.58802 17.9047 8.86056 15.8089 12.2621V6.06335C17.0883 5.68305 18.0244 4.49707 18.0244 3.09582C18.0244 1.38881 16.6356 0 14.9286 0C13.2215 0 11.8327 1.38881 11.8327 3.09582C11.8327 4.49707 12.7688 5.68316 14.0482 6.06335V16.982H12.5825C11.3612 16.982 10.3516 17.8945 10.1932 19.0731C8.18971 19.3516 6.64209 21.0748 6.64209 23.1537C6.64209 25.2326 8.18982 26.9559 10.1932 27.2344C10.3516 28.413 11.3614 29.3255 12.5825 29.3255H14.0482V31.9939C14.0482 37.9634 18.4684 42.9193 24.2077 43.7622V45.2868H17.2796C15.692 45.2868 14.235 46.2177 13.5677 47.6581L12.4199 50.1366C11.8388 51.391 11.9277 52.8408 12.6573 54.0151L16.0454 59.4668C16.2122 59.7351 16.4997 59.8825 16.7939 59.8825C16.9526 59.8825 17.1132 59.8397 17.2578 59.7497C17.6707 59.493 17.7975 58.9503 17.5408 58.5374L14.1527 53.0857C13.7371 52.4169 13.6865 51.5911 14.0175 50.8766L15.1653 48.3982C15.2619 48.1896 15.3879 48 15.5365 47.8328V51.2196C15.5365 52.22 16.3503 53.0339 17.3508 53.0339H19.1165C20.1167 53.0339 20.9306 52.22 20.9306 51.2196V47.2823C21.6746 50.0746 24.0492 52.1823 26.9237 52.5786V55.272H23.0231C22.045 55.272 21.2493 56.0679 21.2493 57.046V59.1194C21.2493 59.6057 21.6434 59.9998 22.1296 59.9998C22.6159 59.9998 23.01 59.6057 23.01 59.1194V57.046C23.01 57.0386 23.016 57.0327 23.0231 57.0327H36.9771C36.9845 57.0327 36.9904 57.0387 36.9904 57.046V59.1194C36.9904 59.6057 37.3844 59.9998 37.8707 59.9998C38.357 59.9998 38.7511 59.6057 38.7511 59.1194V57.046C38.7511 56.0679 37.9554 55.272 36.9771 55.272H33.0767V52.5792C33.6642 52.4989 34.238 52.3464 34.7906 52.1232C35.2414 51.941 35.4592 51.4279 35.2772 50.9771C35.095 50.5264 34.5827 50.3083 34.1311 50.4906C33.5112 50.7411 32.8554 50.8736 32.1822 50.8844C31.7015 50.8921 31.316 51.2839 31.316 51.7646V55.2719H28.6845V51.7646C28.6845 51.2839 28.299 50.8921 27.8184 50.8844C25.435 50.8456 23.3841 49.2545 22.6956 47.0473H24.5828C25.185 48.2771 26.449 49.1262 27.9081 49.1262H32.0924C33.5514 49.1262 34.8155 48.2771 35.4177 47.0473H37.3049C37.152 47.5347 36.932 48.0022 36.6487 48.4297C36.3803 48.8351 36.4912 49.3812 36.8965 49.6498C37.046 49.7489 37.2148 49.7963 37.3819 49.7963C37.6673 49.7963 37.9471 49.6577 38.1166 49.402C38.5484 48.7501 38.8689 48.0274 39.0697 47.2746V51.2195C39.0697 52.2199 39.8836 53.0338 40.8839 53.0338H42.6496C43.6499 53.0338 44.4638 52.2199 44.4638 51.2195V47.8327C44.6124 47.9998 44.7385 48.1895 44.8351 48.3981L45.9829 50.8765C46.3138 51.591 46.2633 52.4167 45.8477 53.0856L42.4596 58.5372C42.2029 58.9503 42.3298 59.493 42.7426 59.7496C42.8872 59.8395 43.0479 59.8824 43.2065 59.8824C43.5007 59.8824 43.7882 59.7348 43.955 59.4666L47.3431 54.0149C48.0728 52.8407 48.1617 51.3909 47.5805 50.1365L46.4327 47.658C45.7653 46.2175 44.3083 45.2867 42.7208 45.2867H35.7927V43.7621C39.2592 43.253 42.2444 41.2437 44.0651 38.4165C44.2724 38.4451 44.48 38.4601 44.6867 38.4601C45.62 38.4601 46.5366 38.17 47.3302 37.605C48.5537 36.734 49.2554 35.373 49.2554 33.871V28.4726C49.5478 28.129 49.7443 27.7028 49.8072 27.2342C51.8104 26.956 53.3581 25.2327 53.3581 23.1538ZM34.3007 34.7921C33.7307 34.7921 33.2669 34.3283 33.2669 33.7582C33.2669 33.1881 33.7306 32.7244 34.3007 32.7244C34.8708 32.7244 35.3346 33.1881 35.3346 33.7582C35.3346 34.3283 34.8708 34.7921 34.3007 34.7921ZM13.5934 3.09582C13.5934 2.35963 14.1924 1.76066 14.9286 1.76066C15.6647 1.76066 16.2637 2.35963 16.2637 3.09582C16.2637 3.83201 15.6647 4.43099 14.9286 4.43099C14.1924 4.43099 13.5934 3.83201 13.5934 3.09582ZM8.40263 23.1538C8.40263 22.0574 9.15408 21.1333 10.169 20.8692V25.4385C9.15419 25.1745 8.40263 24.2502 8.40263 23.1538ZM12.5825 27.565C12.2227 27.565 11.9297 27.2721 11.9297 26.9121V19.3955C11.9297 19.0356 12.2225 18.7427 12.5825 18.7427H14.0482V27.5648H12.5825V27.565ZM19.1165 51.2734H17.3508C17.3212 51.2734 17.2971 51.2493 17.2971 51.2197V47.0476H19.17V51.2197C19.17 51.2493 19.146 51.2734 19.1165 51.2734ZM34.0318 45.4261C34.0318 46.4956 33.1617 47.3658 32.0923 47.3658H27.908C26.8386 47.3658 25.9685 46.4956 25.9685 45.4261V43.8894H34.0319V45.4261H34.0318ZM42.6494 51.2734H40.8837C40.8541 51.2734 40.8302 51.2493 40.8302 51.2197V47.0476H42.7029V51.2197C42.7029 51.2493 42.679 51.2734 42.6494 51.2734ZM51.5974 23.1538C51.5974 24.2502 50.8459 25.1745 49.831 25.4385V20.8692C50.8459 21.1333 51.5974 22.0574 51.5974 23.1538ZM48.0705 19.3955V26.9121C48.0705 27.272 47.7776 27.565 47.4176 27.565H45.9519V18.7428H47.4176C47.7775 18.7428 48.0705 19.0356 48.0705 19.3955ZM46.3089 36.1709C45.9081 36.4563 45.4562 36.6266 44.9897 36.6791C45.6085 35.2406 45.9519 33.6567 45.9519 31.9941V29.3256H47.4176C47.4435 29.3256 47.4688 29.3226 47.4945 29.3217V33.8714C47.4945 34.7963 47.0624 35.6345 46.3089 36.1709Z" fill="white"/>
<path d="M24.8615 24.5892C25.885 24.5892 26.7177 23.7564 26.7177 22.733V19.4526C26.7177 18.4291 25.8849 17.5964 24.8615 17.5964H23.2024C22.1789 17.5964 21.3462 18.4292 21.3462 19.4526V22.733C21.3462 23.7565 22.179 24.5892 23.2024 24.5892H24.8615ZM23.1068 22.733V19.4526C23.1068 19.3999 23.1497 19.3571 23.2024 19.3571H24.8615C24.9142 19.3571 24.9571 19.3999 24.9571 19.4526V22.733C24.9571 22.7857 24.9142 22.8285 24.8615 22.8285H23.2024C23.1497 22.8285 23.1068 22.7857 23.1068 22.733Z" fill="white"/>
<path d="M36.6804 24.5892C37.7039 24.5892 38.5366 23.7564 38.5366 22.733V19.4526C38.5366 18.4291 37.7038 17.5964 36.6804 17.5964H35.0212C33.9977 17.5964 33.165 18.4292 33.165 19.4526V22.733C33.165 23.7565 33.9978 24.5892 35.0212 24.5892H36.6804ZM34.9257 22.733V19.4526C34.9257 19.3999 34.9685 19.3571 35.0212 19.3571H36.6804C36.7331 19.3571 36.7759 19.3999 36.7759 19.4526V22.733C36.7759 22.7857 36.7331 22.8285 36.6804 22.8285H35.0212C34.9687 22.8285 34.9257 22.7857 34.9257 22.733Z" fill="white"/>
</g>
<defs>
<clipPath id="clip0_682_34">
<rect width="60" height="60" fill="white"/>
</clipPath>
</defs>
</svg>
