<svg width="30" height="30" viewBox="0 0 30 30" fill="none" xmlns="http://www.w3.org/2000/svg">
<g clip-path="url(#clip0_686_30)">
<mask id="mask0_686_30" style="mask-type:luminance" maskUnits="userSpaceOnUse" x="0" y="0" width="30" height="30">
<path d="M30 0H0V30H30V0Z" fill="white"/>
</mask>
<g mask="url(#mask0_686_30)">
<path d="M14.0269 4.91724C13.7837 4.91724 13.5867 5.11425 13.5867 5.3574C13.5867 5.60055 13.7837 5.79755 14.0269 5.79755H15.973C16.2162 5.79755 16.4132 5.60055 16.4132 5.3574C16.4132 5.11425 16.2162 4.91724 15.973 4.91724H14.0269Z" fill="white"/>
<path d="M26.6791 11.5769C26.6791 10.5375 25.9052 9.67585 24.9035 9.5366C24.8243 8.9473 24.3194 8.49105 23.7088 8.49105H22.9279C22.8206 7.6442 22.5332 6.8294 22.0798 6.1013C21.9512 5.8949 21.6797 5.83195 21.4734 5.9604C21.267 6.08895 21.2041 6.36035 21.3326 6.5667C21.8318 7.36825 22.0957 8.2932 22.0957 9.2417V15.9971C22.0957 16.7765 21.9184 17.5151 21.6027 18.1754L20.7638 17.8848C21.0519 17.3171 21.2153 16.6761 21.2153 15.9971V9.2417C21.2153 8.3275 20.9247 7.45835 20.3748 6.72835C19.8435 6.02295 19.0882 5.4934 18.2482 5.23715C18.0226 5.16835 17.7768 5.19905 17.5736 5.32135C17.3683 5.44505 17.2246 5.651 17.1793 5.88635L17.0865 6.3678C17.0637 6.48645 16.9595 6.57255 16.8386 6.57255H13.1615C13.0407 6.57255 12.9364 6.4864 12.9135 6.3678L12.8209 5.88645C12.7757 5.65195 12.6324 5.44695 12.4277 5.32405C12.2211 5.2 11.9701 5.16985 11.7391 5.2411C10.9023 5.49935 10.1502 6.02945 9.62145 6.73365C9.0741 7.4626 8.78475 8.3299 8.78475 9.24175V12.9373C8.78475 13.1804 8.9818 13.3774 9.22495 13.3774C9.4681 13.3774 9.6651 13.1804 9.6651 12.9373V9.2417C9.6651 7.7947 10.5875 6.5339 11.9642 6.0931L12.0492 6.5343C12.1517 7.06655 12.6195 7.45285 13.1615 7.45285H16.8385C17.3805 7.45285 17.8484 7.0665 17.9508 6.53425L18.0358 6.0931C19.3919 6.5283 20.3349 7.8162 20.3349 9.2417V15.9971C20.3349 16.5758 20.1851 17.1199 19.9228 17.5936L18.528 17.1105C18.5406 17.0352 18.5476 16.958 18.5476 16.8792C18.5476 16.1087 17.9207 15.4819 17.1503 15.4819C16.3798 15.4819 15.753 16.1087 15.753 16.8792C15.753 17.6496 16.3798 18.2764 17.1503 18.2764C17.5201 18.2764 17.8566 18.1317 18.1068 17.8963L19.3666 18.3327C18.7678 18.9324 17.9406 19.3038 17.0282 19.3038H12.9718C11.1484 19.3038 9.66505 17.8204 9.66505 15.9971V14.8131C9.66505 14.5699 9.468 14.3729 9.2249 14.3729C8.98175 14.3729 8.7847 14.5699 8.7847 14.8131V15.9971C8.7847 18.3058 10.663 20.1841 12.9718 20.1841H17.0282C18.3331 20.1841 19.5002 19.5838 20.2687 18.6451L21.1437 18.9482C20.223 20.2284 18.7219 21.0645 17.0282 21.0645H12.9718C10.1776 21.0645 7.9044 18.7913 7.9044 15.9972V9.2417C7.9044 6.4476 10.1775 4.17434 12.9718 4.17434H17.0282C18.1876 4.17434 19.2787 4.55552 20.1835 5.27675C20.3737 5.4282 20.6507 5.3969 20.8022 5.2069C20.9536 5.0168 20.9224 4.73986 20.7323 4.58833C19.6698 3.74157 18.389 3.29401 17.0282 3.29401H12.9719C10.8318 3.29401 8.95235 4.43028 7.90445 6.13105V3.03168C8.54415 2.84153 9.0122 2.24853 9.0122 1.54791C9.0122 0.694405 8.3178 0 7.4643 0C6.61075 0 5.91635 0.694405 5.91635 1.54791C5.91635 2.24853 6.3844 2.84158 7.0241 3.03168V8.491H6.29125C5.6806 8.491 5.1758 8.94725 5.0966 9.53655C4.09486 9.6758 3.32104 10.5374 3.32104 11.5768C3.32104 12.6163 4.09491 13.4779 5.0966 13.6172C5.1758 14.2065 5.6807 14.6628 6.29125 14.6628H7.0241V15.997C7.0241 18.9817 9.2342 21.4596 12.1039 21.8811V22.6434H8.6398C7.846 22.6434 7.1175 23.1089 6.78385 23.8291L6.20995 25.0683C5.9194 25.6955 5.96385 26.4204 6.32865 27.0075L8.0227 29.7334C8.1061 29.8676 8.24985 29.9412 8.39695 29.9412C8.4763 29.9412 8.5566 29.9198 8.6289 29.8748C8.83535 29.7465 8.89875 29.4751 8.7704 29.2687L7.07635 26.5429C6.86855 26.2085 6.84325 25.7955 7.00875 25.4383L7.58265 24.1991C7.63095 24.0948 7.69395 24 7.76825 23.9164V25.6098C7.76825 26.11 8.17515 26.517 8.6754 26.517H9.55825C10.0584 26.517 10.4653 26.11 10.4653 25.6098V23.6411C10.8373 25.0373 12.0246 26.0912 13.4619 26.2893V27.636H11.5115C11.0225 27.636 10.6247 28.034 10.6247 28.523V29.5597C10.6247 29.8029 10.8217 29.9999 11.0648 29.9999C11.308 29.9999 11.505 29.8029 11.505 29.5597V28.523C11.505 28.5193 11.508 28.5163 11.5115 28.5163H18.4886C18.4923 28.5163 18.4952 28.5194 18.4952 28.523V29.5597C18.4952 29.8029 18.6922 29.9999 18.9354 29.9999C19.1785 29.9999 19.3755 29.8029 19.3755 29.5597V28.523C19.3755 28.034 18.9777 27.636 18.4886 27.636H16.5383V26.2896C16.8321 26.2495 17.119 26.1732 17.3953 26.0616C17.6207 25.9705 17.7296 25.714 17.6386 25.4886C17.5475 25.2632 17.2913 25.1542 17.0655 25.2453C16.7556 25.3706 16.4277 25.4368 16.0911 25.4422C15.8508 25.446 15.658 25.6419 15.658 25.8823V27.636H14.3422V25.8823C14.3422 25.6419 14.1495 25.446 13.9092 25.4422C12.7175 25.4228 11.6921 24.6272 11.3478 23.5236H12.2914C12.5925 24.1385 13.2245 24.5631 13.9541 24.5631H16.0462C16.7757 24.5631 17.4078 24.1385 17.7089 23.5236H18.6525C18.576 23.7673 18.466 24.0011 18.3244 24.2148C18.1902 24.4175 18.2456 24.6906 18.4482 24.8249C18.523 24.8744 18.6074 24.8981 18.691 24.8981C18.8337 24.8981 18.9736 24.8289 19.0583 24.701C19.2742 24.3751 19.4344 24.0137 19.5348 23.6373V25.6098C19.5348 26.11 19.9418 26.5169 20.4419 26.5169H21.3248C21.825 26.5169 22.2319 26.11 22.2319 25.6098V23.9163C22.3062 23.9999 22.3692 24.0948 22.4175 24.1991L22.9914 25.4382C23.1569 25.7955 23.1316 26.2084 22.9238 26.5428L21.2298 29.2686C21.1014 29.4752 21.1649 29.7465 21.3713 29.8748C21.4436 29.9197 21.524 29.9412 21.6033 29.9412C21.7504 29.9412 21.8941 29.8674 21.9775 29.7333L23.6716 27.0075C24.0364 26.4204 24.0809 25.6955 23.7903 25.0683L23.2164 23.829C22.8827 23.1088 22.1541 22.6434 21.3604 22.6434H17.8964V21.8811C19.6296 21.6265 21.1222 20.6219 22.0326 19.2083C22.1362 19.2226 22.24 19.23 22.3433 19.23C22.81 19.23 23.2683 19.085 23.6651 18.8025C24.2769 18.367 24.6277 17.6865 24.6277 16.9355V14.2363C24.7739 14.0645 24.8722 13.8514 24.9036 13.6171C25.9052 13.478 26.6791 12.6163 26.6791 11.5769ZM17.1504 17.396C16.8654 17.396 16.6334 17.1642 16.6334 16.8791C16.6334 16.5941 16.8653 16.3622 17.1504 16.3622C17.4354 16.3622 17.6673 16.5941 17.6673 16.8791C17.6673 17.1642 17.4354 17.396 17.1504 17.396ZM6.7967 1.54791C6.7967 1.17981 7.0962 0.88033 7.4643 0.88033C7.83235 0.88033 8.13185 1.17981 8.13185 1.54791C8.13185 1.916 7.83235 2.2155 7.4643 2.2155C7.0962 2.2155 6.7967 1.916 6.7967 1.54791ZM4.20131 11.5769C4.20131 11.0287 4.57704 10.5666 5.0845 10.4346V12.7192C4.57709 12.5872 4.20131 12.1251 4.20131 11.5769ZM6.29125 13.7825C6.11135 13.7825 5.96485 13.636 5.96485 13.456V9.69775C5.96485 9.5178 6.11125 9.37135 6.29125 9.37135H7.0241V13.7824L6.29125 13.7825ZM9.55825 25.6367H8.6754C8.6606 25.6367 8.64855 25.6246 8.64855 25.6098V23.5238H9.585V25.6098C9.585 25.6246 9.573 25.6367 9.55825 25.6367ZM17.0159 22.7131C17.0159 23.2478 16.5809 23.6829 16.0462 23.6829H13.954C13.4193 23.6829 12.9843 23.2478 12.9843 22.7131V21.9447H17.0159L17.0159 22.7131ZM21.3247 25.6367H20.4419C20.4271 25.6367 20.4151 25.6246 20.4151 25.6098V23.5238H21.3514V25.6098C21.3514 25.6246 21.3395 25.6367 21.3247 25.6367ZM25.7987 11.5769C25.7987 12.1251 25.423 12.5872 24.9155 12.7192V10.4346C25.423 10.5666 25.7987 11.0287 25.7987 11.5769ZM24.0352 9.69775V13.456C24.0352 13.636 23.8888 13.7825 23.7088 13.7825H22.976V9.3714H23.7088C23.8887 9.3714 24.0352 9.5178 24.0352 9.69775ZM23.1544 18.0854C22.954 18.2281 22.7281 18.3133 22.4949 18.3396C22.8043 17.6203 22.976 16.8284 22.976 15.9971V14.6628H23.7088C23.7217 14.6628 23.7344 14.6613 23.7472 14.6608V16.9357C23.7472 17.3981 23.5312 17.8172 23.1544 18.0854Z" fill="white"/>
<path d="M12.4307 12.2945C12.9425 12.2945 13.3588 11.8781 13.3588 11.3664V9.7262C13.3588 9.21445 12.9424 8.7981 12.4307 8.7981H11.6012C11.0894 8.7981 10.6731 9.2145 10.6731 9.7262V11.3664C10.6731 11.8781 11.0895 12.2945 11.6012 12.2945H12.4307ZM11.5534 11.3664V9.7262C11.5534 9.69985 11.5748 9.67845 11.6012 9.67845H12.4307C12.4571 9.67845 12.4785 9.69985 12.4785 9.7262V11.3664C12.4785 11.3927 12.4571 11.4141 12.4307 11.4141H11.6012C11.5748 11.4141 11.5534 11.3927 11.5534 11.3664Z" fill="white"/>
<path d="M18.3402 12.2945C18.852 12.2945 19.2683 11.8781 19.2683 11.3664V9.7262C19.2683 9.21445 18.8519 8.7981 18.3402 8.7981H17.5106C16.9989 8.7981 16.5825 9.2145 16.5825 9.7262V11.3664C16.5825 11.8781 16.9989 12.2945 17.5106 12.2945H18.3402ZM17.4629 11.3664V9.7262C17.4629 9.69985 17.4843 9.67845 17.5106 9.67845H18.3402C18.3666 9.67845 18.388 9.69985 18.388 9.7262V11.3664C18.388 11.3927 18.3666 11.4141 18.3402 11.4141H17.5106C17.4844 11.4141 17.4629 11.3927 17.4629 11.3664Z" fill="white"/>
</g>
</g>
<defs>
<clipPath id="clip0_686_30">
<rect width="30" height="30" fill="white"/>
</clipPath>
</defs>
</svg>
