<svg width="60" height="60" viewBox="0 0 60 60" fill="none" xmlns="http://www.w3.org/2000/svg">
<g clip-path="url(#clip0_682_40)">
<path d="M51.0438 3.0061H2.94363C1.32047 3.0061 0 4.32669 0 5.94974V48.0374C0 49.6606 1.32047 50.981 2.94363 50.981H35.0105C35.5294 50.981 35.95 50.5604 35.95 50.0415C35.95 49.5227 35.5295 49.102 35.0105 49.102H2.94363C2.35652 49.102 1.87887 48.6244 1.87887 48.0373V12.9018H39.0189C39.5378 12.9018 39.9584 12.4812 39.9584 11.9623C39.9584 11.4434 39.5379 11.0228 39.0189 11.0228H1.87887V5.94974C1.87887 5.36263 2.35652 4.88497 2.94363 4.88497H51.0438C51.6309 4.88497 52.1086 5.36263 52.1086 5.94974V11.0228H49.0397C48.5208 11.0228 48.1002 11.4434 48.1002 11.9623C48.1002 12.4812 48.5207 12.9018 49.0397 12.9018H52.1086V32.004C52.1086 32.5228 52.5291 32.9435 53.0481 32.9435C53.567 32.9435 53.9876 32.5229 53.9876 32.004V5.94974C53.9875 4.32669 52.667 3.0061 51.0438 3.0061Z" fill="white"/>
<path d="M45.0316 11.0229H43.0269C42.508 11.0229 42.0874 11.4435 42.0874 11.9624C42.0874 12.4813 42.5079 12.9019 43.0269 12.9019H45.0316C45.5505 12.9019 45.9711 12.4813 45.9711 11.9624C45.9711 11.4435 45.5506 11.0229 45.0316 11.0229Z" fill="white"/>
<path d="M4.95771 7.01465H4.94764C4.42873 7.01465 4.01318 7.43523 4.01318 7.95414C4.01318 8.47305 4.43869 8.89363 4.9576 8.89363C5.4765 8.89363 5.89709 8.47305 5.89709 7.95414C5.89709 7.43523 5.47662 7.01465 4.95771 7.01465Z" fill="white"/>
<path d="M12.9743 7.01465H12.9642C12.4453 7.01465 12.0298 7.43523 12.0298 7.95414C12.0298 8.47305 12.4553 8.89363 12.9742 8.89363C13.4931 8.89363 13.9137 8.47305 13.9137 7.95414C13.9137 7.43523 13.4932 7.01465 12.9743 7.01465Z" fill="white"/>
<path d="M8.95625 7.01465H8.94617C8.42727 7.01465 8.01172 7.43523 8.01172 7.95414C8.01172 8.47305 8.43723 8.89363 8.95613 8.89363C9.47504 8.89363 9.89563 8.47305 9.89563 7.95414C9.89563 7.43523 9.47516 7.01465 8.95625 7.01465Z" fill="white"/>
<path d="M49.0395 7.01465H16.9727C16.4538 7.01465 16.0332 7.43523 16.0332 7.95414C16.0332 8.47305 16.4537 8.89363 16.9727 8.89363H49.0395C49.5584 8.89363 49.979 8.47305 49.979 7.95414C49.979 7.43523 49.5584 7.01465 49.0395 7.01465Z" fill="white"/>
<path d="M49.0399 35.073C42.9963 35.073 38.0796 39.9897 38.0796 46.0333C38.0796 52.0769 42.9963 56.9936 49.0399 56.9936C55.0835 56.9936 60.0002 52.0769 60.0002 46.0333C60.0002 39.9897 55.0835 35.073 49.0399 35.073ZM49.0399 55.1148C44.0324 55.1148 39.9585 51.0408 39.9585 46.0333C39.9585 41.0258 44.0324 36.9519 49.0399 36.9519C54.0474 36.9519 58.1214 41.0258 58.1214 46.0333C58.1214 51.0408 54.0474 55.1148 49.0399 55.1148Z" fill="white"/>
<path d="M54.0503 45.094H49.9793V41.023C49.9793 40.5042 49.5588 40.0835 49.0398 40.0835C48.5209 40.0835 48.1003 40.5041 48.1003 41.023V45.094H44.0293C43.5104 45.094 43.0898 45.5146 43.0898 46.0335C43.0898 46.5522 43.5103 46.973 44.0293 46.973H48.1003V51.0439C48.1003 51.5627 48.5208 51.9834 49.0398 51.9834C49.5587 51.9834 49.9793 51.5628 49.9793 51.0439V46.973H54.0503C54.5692 46.973 54.9898 46.5524 54.9898 46.0335C54.9896 45.5146 54.5692 45.094 54.0503 45.094Z" fill="white"/>
<path d="M10.9602 18.0376C9.33707 18.0376 8.0166 19.3581 8.0166 20.9812C8.0166 22.6044 9.33707 23.9249 10.9602 23.9249C12.5834 23.9249 13.9039 22.6044 13.9039 20.9812C13.9039 19.3581 12.5834 18.0376 10.9602 18.0376ZM10.9602 22.0459C10.3731 22.0459 9.89547 21.5682 9.89547 20.9811C9.89547 20.394 10.3731 19.9163 10.9602 19.9163C11.5473 19.9163 12.025 20.394 12.025 20.9811C12.025 21.5682 11.5473 22.0459 10.9602 22.0459Z" fill="white"/>
<path d="M45.0311 18.0376H16.9727C16.4538 18.0376 16.0332 18.4582 16.0332 18.9771C16.0332 19.496 16.4537 19.9166 16.9727 19.9166H45.0311C45.55 19.9166 45.9706 19.496 45.9706 18.9771C45.9706 18.4582 45.5502 18.0376 45.0311 18.0376Z" fill="white"/>
<path d="M18.9768 22.0459H16.9727C16.4538 22.0459 16.0332 22.4665 16.0332 22.9854C16.0332 23.5043 16.4537 23.9249 16.9727 23.9249H18.9768C19.4957 23.9249 19.9163 23.5043 19.9163 22.9854C19.9163 22.4665 19.4959 22.0459 18.9768 22.0459Z" fill="white"/>
<path d="M31.0022 22.0459H28.9981C28.4792 22.0459 28.0586 22.4665 28.0586 22.9854C28.0586 23.5043 28.4791 23.9249 28.9981 23.9249H31.0022C31.5211 23.9249 31.9417 23.5043 31.9417 22.9854C31.9417 22.4665 31.5212 22.0459 31.0022 22.0459Z" fill="white"/>
<path d="M24.9895 22.0459H22.9854C22.4665 22.0459 22.0459 22.4665 22.0459 22.9854C22.0459 23.5043 22.4664 23.9249 22.9854 23.9249H24.9895C25.5084 23.9249 25.929 23.5043 25.929 22.9854C25.929 22.4665 25.5086 22.0459 24.9895 22.0459Z" fill="white"/>
<path d="M10.9602 28.0583C9.33707 28.0583 8.0166 29.3788 8.0166 31.002C8.0166 32.6251 9.33707 33.9456 10.9602 33.9456C12.5834 33.9456 13.9039 32.6251 13.9039 31.002C13.9039 29.3788 12.5834 28.0583 10.9602 28.0583ZM10.9602 32.0667C10.3731 32.0667 9.89547 31.5891 9.89547 31.002C9.89547 30.4149 10.3731 29.9372 10.9602 29.9372C11.5473 29.9372 12.025 30.4149 12.025 31.002C12.025 31.5891 11.5473 32.0667 10.9602 32.0667Z" fill="white"/>
<path d="M45.0311 28.0583H16.9727C16.4538 28.0583 16.0332 28.4789 16.0332 28.9978C16.0332 29.5167 16.4537 29.9373 16.9727 29.9373H45.0311C45.55 29.9373 45.9706 29.5167 45.9706 28.9978C45.9706 28.4789 45.5502 28.0583 45.0311 28.0583Z" fill="white"/>
<path d="M18.9768 32.0669H16.9727C16.4538 32.0669 16.0332 32.4875 16.0332 33.0064C16.0332 33.5253 16.4537 33.9459 16.9727 33.9459H18.9768C19.4957 33.9459 19.9163 33.5253 19.9163 33.0064C19.9163 32.4875 19.4959 32.0669 18.9768 32.0669Z" fill="white"/>
<path d="M31.0022 32.0669H28.9981C28.4792 32.0669 28.0586 32.4875 28.0586 33.0064C28.0586 33.5253 28.4791 33.9459 28.9981 33.9459H31.0022C31.5211 33.9459 31.9417 33.5253 31.9417 33.0064C31.9417 32.4875 31.5212 32.0669 31.0022 32.0669Z" fill="white"/>
<path d="M24.9895 32.0669H22.9854C22.4665 32.0669 22.0459 32.4875 22.0459 33.0064C22.0459 33.5253 22.4664 33.9459 22.9854 33.9459H24.9895C25.5084 33.9459 25.929 33.5253 25.929 33.0064C25.929 32.4875 25.5086 32.0669 24.9895 32.0669Z" fill="white"/>
<path d="M10.9602 38.0793C9.33707 38.0793 8.0166 39.3998 8.0166 41.023C8.0166 42.6461 9.33707 43.9666 10.9602 43.9666C12.5834 43.9666 13.9039 42.6461 13.9039 41.023C13.9039 39.3998 12.5834 38.0793 10.9602 38.0793ZM10.9602 42.0876C10.3731 42.0876 9.89547 41.61 9.89547 41.0229C9.89547 40.4358 10.3731 39.9581 10.9602 39.9581C11.5473 39.9581 12.025 40.4358 12.025 41.0229C12.025 41.6101 11.5473 42.0876 10.9602 42.0876Z" fill="white"/>
<path d="M36.0124 38.0793H16.9727C16.4538 38.0793 16.0332 38.4999 16.0332 39.0188C16.0332 39.5377 16.4537 39.9583 16.9727 39.9583H36.0124C36.5313 39.9583 36.9519 39.5377 36.9519 39.0188C36.9519 38.4999 36.5313 38.0793 36.0124 38.0793Z" fill="white"/>
<path d="M18.9768 42.0876H16.9727C16.4538 42.0876 16.0332 42.5082 16.0332 43.0271C16.0332 43.5459 16.4537 43.9666 16.9727 43.9666H18.9768C19.4957 43.9666 19.9163 43.546 19.9163 43.0271C19.9163 42.5083 19.4959 42.0876 18.9768 42.0876Z" fill="white"/>
<path d="M31.0022 42.0876H28.9981C28.4792 42.0876 28.0586 42.5082 28.0586 43.0271C28.0586 43.5459 28.4791 43.9666 28.9981 43.9666H31.0022C31.5211 43.9666 31.9417 43.546 31.9417 43.0271C31.9417 42.5083 31.5212 42.0876 31.0022 42.0876Z" fill="white"/>
<path d="M24.9895 42.0876H22.9854C22.4665 42.0876 22.0459 42.5082 22.0459 43.0271C22.0459 43.5459 22.4664 43.9666 22.9854 43.9666H24.9895C25.5084 43.9666 25.929 43.546 25.929 43.0271C25.929 42.5083 25.5086 42.0876 24.9895 42.0876Z" fill="white"/>
</g>
<defs>
<clipPath id="clip0_682_40">
<rect width="60" height="60" fill="white"/>
</clipPath>
</defs>
</svg>
