<svg width="30" height="30" viewBox="0 0 30 30" fill="none" xmlns="http://www.w3.org/2000/svg">
<mask id="mask0_686_66" style="mask-type:luminance" maskUnits="userSpaceOnUse" x="0" y="0" width="30" height="30">
<path d="M30 0H0V30H30V0Z" fill="white"/>
</mask>
<g mask="url(#mask0_686_66)">
<path d="M25.5219 1.50293H1.47181C0.660235 1.50293 0 2.16322 0 2.97475V24.0186C0 24.8302 0.660235 25.4904 1.47181 25.4904H17.5053C17.7647 25.4904 17.975 25.2801 17.975 25.0206C17.975 24.7612 17.7648 24.5509 17.5053 24.5509H1.47181C1.17826 24.5509 0.939435 24.3121 0.939435 24.0185V6.45078H19.5095C19.7689 6.45078 19.9792 6.24048 19.9792 5.98103C19.9792 5.72158 19.769 5.51128 19.5095 5.51128H0.939435V2.97475C0.939435 2.68119 1.17826 2.44236 1.47181 2.44236H25.5219C25.8155 2.44236 26.0543 2.68119 26.0543 2.97475V5.51128H24.5198C24.2604 5.51128 24.0501 5.72158 24.0501 5.98103C24.0501 6.24048 24.2603 6.45078 24.5198 6.45078H26.0543V16.0019C26.0543 16.2613 26.2645 16.4716 26.524 16.4716C26.7835 16.4716 26.9938 16.2613 26.9938 16.0019V2.97475C26.9937 2.16322 26.3335 1.50293 25.5219 1.50293Z" fill="white"/>
<path d="M22.5158 5.51147H21.5135C21.254 5.51147 21.0437 5.72178 21.0437 5.98123C21.0437 6.24068 21.254 6.45097 21.5135 6.45097H22.5158C22.7753 6.45097 22.9856 6.24068 22.9856 5.98123C22.9856 5.72178 22.7753 5.51147 22.5158 5.51147Z" fill="white"/>
<path d="M2.47886 3.50732H2.47382C2.21437 3.50732 2.00659 3.71761 2.00659 3.97707C2.00659 4.23652 2.21935 4.44681 2.4788 4.44681C2.73825 4.44681 2.94855 4.23652 2.94855 3.97707C2.94855 3.71761 2.73831 3.50732 2.47886 3.50732Z" fill="white"/>
<path d="M6.48714 3.50732H6.48209C6.22264 3.50732 6.01489 3.71761 6.01489 3.97707C6.01489 4.23652 6.22764 4.44681 6.48709 4.44681C6.74654 4.44681 6.95684 4.23652 6.95684 3.97707C6.95684 3.71761 6.74659 3.50732 6.48714 3.50732Z" fill="white"/>
<path d="M4.47812 3.50732H4.47308C4.21363 3.50732 4.00586 3.71761 4.00586 3.97707C4.00586 4.23652 4.21861 4.44681 4.47806 4.44681C4.73752 4.44681 4.94781 4.23652 4.94781 3.97707C4.94781 3.71761 4.73758 3.50732 4.47812 3.50732Z" fill="white"/>
<path d="M24.5198 3.50732H8.48635C8.2269 3.50732 8.0166 3.71761 8.0166 3.97707C8.0166 4.23652 8.22685 4.44681 8.48635 4.44681H24.5198C24.7792 4.44681 24.9895 4.23652 24.9895 3.97707C24.9895 3.71761 24.7792 3.50732 24.5198 3.50732Z" fill="white"/>
<path d="M24.5199 17.5366C21.4981 17.5366 19.0398 19.995 19.0398 23.0168C19.0398 26.0386 21.4981 28.4969 24.5199 28.4969C27.5417 28.4969 30.0001 26.0386 30.0001 23.0168C30.0001 19.995 27.5417 17.5366 24.5199 17.5366ZM24.5199 27.5575C22.0162 27.5575 19.9792 25.5205 19.9792 23.0168C19.9792 20.513 22.0162 18.4761 24.5199 18.4761C27.0237 18.4761 29.0607 20.513 29.0607 23.0168C29.0607 25.5205 27.0237 27.5575 24.5199 27.5575Z" fill="white"/>
<path d="M27.0252 22.547H24.9897V20.5115C24.9897 20.2521 24.7794 20.0417 24.5199 20.0417C24.2605 20.0417 24.0502 20.252 24.0502 20.5115V22.547H22.0147C21.7552 22.547 21.5449 22.7573 21.5449 23.0167C21.5449 23.2761 21.7552 23.4865 22.0147 23.4865H24.0502V25.5219C24.0502 25.7813 24.2604 25.9917 24.5199 25.9917C24.7794 25.9917 24.9897 25.7814 24.9897 25.5219V23.4865H27.0252C27.2846 23.4865 27.4949 23.2762 27.4949 23.0167C27.4948 22.7573 27.2846 22.547 27.0252 22.547Z" fill="white"/>
<path d="M5.4801 9.0188C4.66854 9.0188 4.0083 9.67905 4.0083 10.4906C4.0083 11.3022 4.66854 11.9624 5.4801 11.9624C6.2917 11.9624 6.95195 11.3022 6.95195 10.4906C6.95195 9.67905 6.2917 9.0188 5.4801 9.0188ZM5.4801 11.0229C5.18655 11.0229 4.94774 10.7841 4.94774 10.4905C4.94774 10.197 5.18655 9.95815 5.4801 9.95815C5.77365 9.95815 6.0125 10.197 6.0125 10.4905C6.0125 10.7841 5.77365 11.0229 5.4801 11.0229Z" fill="white"/>
<path d="M22.5156 9.0188H8.48635C8.2269 9.0188 8.0166 9.2291 8.0166 9.48855C8.0166 9.748 8.22685 9.9583 8.48635 9.9583H22.5156C22.775 9.9583 22.9853 9.748 22.9853 9.48855C22.9853 9.2291 22.7751 9.0188 22.5156 9.0188Z" fill="white"/>
<path d="M9.4884 11.0229H8.48635C8.2269 11.0229 8.0166 11.2332 8.0166 11.4927C8.0166 11.7521 8.22685 11.9624 8.48635 11.9624H9.4884C9.74785 11.9624 9.95815 11.7521 9.95815 11.4927C9.95815 11.2332 9.74795 11.0229 9.4884 11.0229Z" fill="white"/>
<path d="M15.5011 11.0229H14.499C14.2396 11.0229 14.0293 11.2332 14.0293 11.4927C14.0293 11.7521 14.2395 11.9624 14.499 11.9624H15.5011C15.7605 11.9624 15.9708 11.7521 15.9708 11.4927C15.9708 11.2332 15.7606 11.0229 15.5011 11.0229Z" fill="white"/>
<path d="M12.4947 11.0229H11.4927C11.2332 11.0229 11.0229 11.2332 11.0229 11.4927C11.0229 11.7521 11.2332 11.9624 11.4927 11.9624H12.4947C12.7542 11.9624 12.9645 11.7521 12.9645 11.4927C12.9645 11.2332 12.7543 11.0229 12.4947 11.0229Z" fill="white"/>
<path d="M5.4801 14.0293C4.66854 14.0293 4.0083 14.6895 4.0083 15.5011C4.0083 16.3127 4.66854 16.9729 5.4801 16.9729C6.2917 16.9729 6.95195 16.3127 6.95195 15.5011C6.95195 14.6895 6.2917 14.0293 5.4801 14.0293ZM5.4801 16.0335C5.18655 16.0335 4.94774 15.7947 4.94774 15.5011C4.94774 15.2076 5.18655 14.9687 5.4801 14.9687C5.77365 14.9687 6.0125 15.2076 6.0125 15.5011C6.0125 15.7947 5.77365 16.0335 5.4801 16.0335Z" fill="white"/>
<path d="M22.5156 14.0293H8.48635C8.2269 14.0293 8.0166 14.2396 8.0166 14.499C8.0166 14.7585 8.22685 14.9688 8.48635 14.9688H22.5156C22.775 14.9688 22.9853 14.7585 22.9853 14.499C22.9853 14.2396 22.7751 14.0293 22.5156 14.0293Z" fill="white"/>
<path d="M9.4884 16.0334H8.48635C8.2269 16.0334 8.0166 16.2437 8.0166 16.5032C8.0166 16.7626 8.22685 16.9729 8.48635 16.9729H9.4884C9.74785 16.9729 9.95815 16.7626 9.95815 16.5032C9.95815 16.2437 9.74795 16.0334 9.4884 16.0334Z" fill="white"/>
<path d="M15.5011 16.0334H14.499C14.2396 16.0334 14.0293 16.2437 14.0293 16.5032C14.0293 16.7626 14.2395 16.9729 14.499 16.9729H15.5011C15.7605 16.9729 15.9708 16.7626 15.9708 16.5032C15.9708 16.2437 15.7606 16.0334 15.5011 16.0334Z" fill="white"/>
<path d="M12.4947 16.0334H11.4927C11.2332 16.0334 11.0229 16.2437 11.0229 16.5032C11.0229 16.7626 11.2332 16.9729 11.4927 16.9729H12.4947C12.7542 16.9729 12.9645 16.7626 12.9645 16.5032C12.9645 16.2437 12.7543 16.0334 12.4947 16.0334Z" fill="white"/>
<path d="M5.4801 19.0396C4.66854 19.0396 4.0083 19.6998 4.0083 20.5114C4.0083 21.323 4.66854 21.9832 5.4801 21.9832C6.2917 21.9832 6.95195 21.323 6.95195 20.5114C6.95195 19.6998 6.2917 19.0396 5.4801 19.0396ZM5.4801 21.0437C5.18655 21.0437 4.94774 20.8049 4.94774 20.5114C4.94774 20.2178 5.18655 19.979 5.4801 19.979C5.77365 19.979 6.0125 20.2178 6.0125 20.5114C6.0125 20.805 5.77365 21.0437 5.4801 21.0437Z" fill="white"/>
<path d="M18.0062 19.0396H8.48635C8.2269 19.0396 8.0166 19.2499 8.0166 19.5093C8.0166 19.7688 8.22685 19.9791 8.48635 19.9791H18.0062C18.2657 19.9791 18.476 19.7688 18.476 19.5093C18.476 19.2499 18.2657 19.0396 18.0062 19.0396Z" fill="white"/>
<path d="M9.4884 21.0439H8.48635C8.2269 21.0439 8.0166 21.2542 8.0166 21.5137C8.0166 21.7731 8.22685 21.9834 8.48635 21.9834H9.4884C9.74785 21.9834 9.95815 21.7731 9.95815 21.5137C9.95815 21.2543 9.74795 21.0439 9.4884 21.0439Z" fill="white"/>
<path d="M15.5011 21.0439H14.499C14.2396 21.0439 14.0293 21.2542 14.0293 21.5137C14.0293 21.7731 14.2395 21.9834 14.499 21.9834H15.5011C15.7605 21.9834 15.9708 21.7731 15.9708 21.5137C15.9708 21.2543 15.7606 21.0439 15.5011 21.0439Z" fill="white"/>
<path d="M12.4947 21.0439H11.4927C11.2332 21.0439 11.0229 21.2542 11.0229 21.5137C11.0229 21.7731 11.2332 21.9834 11.4927 21.9834H12.4947C12.7542 21.9834 12.9645 21.7731 12.9645 21.5137C12.9645 21.2543 12.7543 21.0439 12.4947 21.0439Z" fill="white"/>
</g>
</svg>
