<svg width="120" height="120" viewBox="0 0 120 120" fill="none" xmlns="http://www.w3.org/2000/svg">
<path d="M61.3399 44.5966C61.3399 44.5966 61.2936 30.4025 61.8921 21.3764C61.8921 21.3764 53.4198 21.1758 39.6016 24.5491L61.3399 44.5966Z" fill="white"/>
<path d="M61.3399 44.5966L61.0009 44.9641L61.8399 44.5949L61.3399 44.5966ZM61.8921 21.3764L62.391 21.4095C62.4001 21.2735 62.3532 21.1397 62.2612 21.0391C62.1693 20.9385 62.0402 20.8798 61.904 20.8766L61.8921 21.3764ZM39.6016 24.5491L39.483 24.0633L39.2626 24.9166L39.6016 24.5491ZM61.3399 44.5966C61.8399 44.5949 61.8399 44.5949 61.8399 44.5948C61.8399 44.5947 61.8399 44.5945 61.8399 44.5943C61.8399 44.5939 61.8399 44.5933 61.8399 44.5924C61.8398 44.5907 61.8398 44.5882 61.8398 44.5848C61.8398 44.578 61.8398 44.5678 61.8397 44.5543C61.8397 44.5273 61.8396 44.487 61.8395 44.4341C61.8393 44.3281 61.8391 44.1715 61.839 43.9689C61.8389 43.5637 61.8395 42.9746 61.842 42.2394C61.847 40.769 61.8599 38.7144 61.8915 36.3781C61.9547 31.7029 62.0927 25.9088 62.391 21.4095L61.3932 21.3433C61.0931 25.8702 60.9549 31.6862 60.8916 36.3645C60.8599 38.705 60.847 40.763 60.842 42.236C60.8395 42.9725 60.8389 43.5629 60.839 43.9692C60.8391 44.1723 60.8393 44.3295 60.8395 44.4359C60.8396 44.4891 60.8397 44.5296 60.8398 44.5569C60.8398 44.5705 60.8398 44.5808 60.8398 44.5877C60.8398 44.5912 60.8399 44.5938 60.8399 44.5955C60.8399 44.5964 60.8399 44.5971 60.8399 44.5975C60.8399 44.5977 60.8399 44.5979 60.8399 44.598C60.8399 44.5981 60.8399 44.5982 61.3399 44.5966ZM61.8921 21.3764C61.904 20.8766 61.9038 20.8765 61.9037 20.8765C61.9036 20.8765 61.9034 20.8765 61.9032 20.8765C61.9028 20.8765 61.9022 20.8765 61.9016 20.8765C61.9002 20.8765 61.8984 20.8764 61.8961 20.8764C61.8914 20.8763 61.8846 20.8762 61.8758 20.876C61.8582 20.8757 61.8324 20.8753 61.7985 20.875C61.7308 20.8743 61.6307 20.8738 61.499 20.8744C61.2355 20.8755 60.8457 20.8809 60.3356 20.8981C59.3155 20.9323 57.8142 21.0133 55.8806 21.2001C52.0135 21.5737 46.4172 22.3706 39.483 24.0633L39.7201 25.0348C46.6042 23.3543 52.1531 22.5649 55.9768 22.1955C57.8886 22.0108 59.369 21.9311 60.3692 21.8975C60.8693 21.8807 61.2493 21.8755 61.5032 21.8744C61.6302 21.8738 61.7256 21.8743 61.7887 21.875C61.8202 21.8753 61.8437 21.8756 61.859 21.8759C61.8666 21.876 61.8723 21.8761 61.8758 21.8762C61.8776 21.8762 61.8789 21.8762 61.8796 21.8763C61.88 21.8763 61.8802 21.8763 61.8803 21.8763C61.8804 21.8763 61.8804 21.8763 61.8804 21.8763C61.8804 21.8763 61.8803 21.8763 61.8921 21.3764ZM39.2626 24.9166L61.0009 44.9641L61.6788 44.229L39.9405 24.1815L39.2626 24.9166Z" fill="#202123"/>
<path d="M61.1953 54.2717L88.8021 38.1249C81.3656 33.72 71.416 31.2526 61.4943 31.0043L61.1953 54.2717Z" fill="white"/>
<path d="M61.1953 54.2717L60.6954 54.2652C60.693 54.4455 60.7879 54.6131 60.9438 54.7038C61.0996 54.7945 61.2921 54.7943 61.4477 54.7032L61.1953 54.2717ZM88.8021 38.1249L89.0545 38.5565C89.2074 38.4671 89.3016 38.3034 89.3021 38.1263C89.3026 37.9491 89.2093 37.785 89.0569 37.6947L88.8021 38.1249ZM61.4943 31.0043L61.5068 30.5044C61.3732 30.5011 61.2438 30.5514 61.1475 30.6441C61.0512 30.7368 60.9961 30.8642 60.9944 30.9978L61.4943 31.0043ZM61.4477 54.7032L89.0545 38.5565L88.5496 37.6933L60.9429 53.8401L61.4477 54.7032ZM89.0569 37.6947C81.5312 33.2369 71.4936 30.7544 61.5068 30.5044L61.4818 31.5041C71.3385 31.7508 81.1999 34.203 88.5473 38.5551L89.0569 37.6947ZM60.9944 30.9978L60.6954 54.2652L61.6953 54.2781L61.9943 31.0107L60.9944 30.9978Z" fill="#202123"/>
<path d="M61.1797 54.2509V72.8546L88.8501 57.6719L88.8038 38.125L61.18 54.2509H61.1797Z" fill="#150035" stroke="#202123" stroke-linejoin="round"/>
<path d="M99.9945 82.143L99.8669 64.2009L61.1953 64.8027L61.3074 88.0745H61.3931L69.6672 109.231C76.1884 108.399 82.5819 106.316 88.3208 103.211C95.7288 98.9994 99.5375 93.8404 99.8993 88.3595V88.0745C99.8993 88.0745 100.023 82.6212 99.9945 82.143Z" fill="white"/>
<path d="M99.9945 82.143L99.4945 82.1465L99.4954 82.1728L99.9945 82.143ZM99.8669 64.2009L100.367 64.1974C100.366 64.064 100.312 63.9366 100.216 63.8434C100.121 63.7502 99.9925 63.6989 99.8591 63.701L99.8669 64.2009ZM61.1953 64.8027L61.1875 64.3027L60.6953 64.8051L61.1953 64.8027ZM61.3074 88.0745L60.8074 88.0769L61.3074 88.5745V88.0745ZM61.3931 88.0745L61.8588 87.8923L61.3931 87.5745V88.0745ZM69.6672 109.231L69.2015 109.413C69.285 109.627 69.503 109.756 69.7305 109.727L69.6672 109.231ZM88.3208 103.211L88.5588 103.651L88.5679 103.646L88.3208 103.211ZM99.8993 88.3595L100.398 88.3925L100.399 88.3595H99.8993ZM99.8993 88.0745L99.3993 88.0631V88.0745H99.8993ZM100.495 82.1394L100.367 64.1974L99.3669 64.2045L99.4945 82.1465L100.495 82.1394ZM99.8591 63.701L61.1875 64.3027L61.2031 65.3026L99.8747 64.7009L99.8591 63.701ZM60.6953 64.8051L60.8074 88.0769L61.8074 88.072L61.6953 64.8003L60.6953 64.8051ZM61.3074 88.5745H61.3931V87.5745H61.3074V88.5745ZM60.9275 88.2566L69.2015 109.413L70.1328 109.049L61.8588 87.8923L60.9275 88.2566ZM69.7305 109.727C76.3139 108.887 82.7665 106.785 88.5587 103.651L88.0829 102.771C82.3974 105.847 76.063 107.911 69.6039 108.735L69.7305 109.727ZM88.5679 103.646C96.0536 99.3899 100.021 94.1068 100.398 88.3925L99.4004 88.3266C99.054 93.574 95.404 98.6089 88.0737 102.777L88.5679 103.646ZM100.399 88.3595V88.0745H99.3993V88.3595H100.399ZM99.8993 88.0745C100.399 88.0858 100.399 88.0858 100.399 88.0857C100.399 88.0857 100.399 88.0856 100.399 88.0855C100.399 88.0854 100.399 88.0851 100.399 88.0848C100.399 88.0841 100.399 88.0831 100.399 88.0818C100.399 88.0792 100.399 88.0753 100.4 88.0701C100.4 88.0597 100.4 88.0444 100.401 88.0243C100.401 87.9842 100.403 87.9254 100.404 87.8503C100.408 87.7001 100.413 87.4851 100.418 87.2257C100.429 86.7067 100.444 86.0097 100.458 85.2977C100.485 83.893 100.509 82.3782 100.494 82.1132L99.4954 82.1728C99.5082 82.3859 99.4855 83.8369 99.4577 85.2784C99.444 85.9895 99.4295 86.6857 99.4183 87.2042C99.4127 87.4634 99.408 87.6782 99.4047 87.8281C99.403 87.9031 99.4017 87.9619 99.4008 88.0019C99.4004 88.0219 99.4 88.0372 99.3998 88.0475C99.3997 88.0527 99.3996 88.0566 99.3995 88.0592C99.3995 88.0605 99.3995 88.0615 99.3995 88.0621C99.3995 88.0625 99.3994 88.0627 99.3994 88.0629C99.3994 88.0629 99.3994 88.063 99.3994 88.063C99.3994 88.0631 99.3994 88.0631 99.8993 88.0745Z" fill="#202123"/>
<path d="M99.921 88.3411V88.0561C99.921 88.0561 99.9781 82.6396 99.921 82.1614L99.8699 64.2009L91.6275 64.3209C85.2574 69.0937 71.9268 79.1634 71.8507 79.237L69.6797 86.0605V109.231C76.2128 108.409 82.5239 106.305 88.2758 103.202C95.7314 98.9994 99.5401 93.8404 99.921 88.3411Z" fill="#150035"/>
<path d="M99.921 88.3411L100.42 88.3757L100.421 88.3411H99.921ZM99.921 88.0561L99.421 88.0508V88.0561H99.921ZM99.921 82.1614L99.421 82.1628L99.4245 82.2207L99.921 82.1614ZM99.8699 64.2009L100.37 64.1995L99.8626 63.701L99.8699 64.2009ZM91.6275 64.3209L91.6202 63.821L91.3277 63.9208L91.6275 64.3209ZM71.8507 79.237L71.5033 78.8774L71.3742 79.0854L71.8507 79.237ZM69.6797 86.0605L69.2032 85.9089L69.1797 86.0605H69.6797ZM69.6797 109.231H69.1797C69.1797 109.375 69.2413 109.511 69.3489 109.606C69.4565 109.701 69.5997 109.745 69.7421 109.727L69.6797 109.231ZM88.2758 103.202L88.5132 103.642L88.5213 103.638L88.2758 103.202ZM100.421 88.3411V88.0561H99.421V88.3411H100.421ZM99.921 88.0561C100.421 88.0613 100.421 88.0613 100.421 88.0613C100.421 88.0612 100.421 88.0612 100.421 88.0611C100.421 88.0609 100.421 88.0607 100.421 88.0603C100.421 88.0597 100.421 88.0587 100.421 88.0574C100.421 88.0547 100.421 88.0508 100.421 88.0457C100.421 88.0354 100.421 88.0201 100.422 88.0002C100.422 87.9603 100.423 87.9019 100.423 87.8273C100.425 87.6781 100.427 87.4644 100.429 87.2066C100.433 86.691 100.439 85.9983 100.442 85.2906C100.446 84.5831 100.448 83.8593 100.445 83.2818C100.443 82.7256 100.436 82.2581 100.417 82.102L99.4245 82.2207C99.4245 82.2207 99.4246 82.2209 99.4246 82.2213C99.4247 82.2217 99.4247 82.2223 99.4248 82.2231C99.425 82.2247 99.4252 82.2269 99.4254 82.2297C99.4259 82.2355 99.4265 82.243 99.4271 82.2526C99.4283 82.2718 99.4296 82.2965 99.4309 82.327C99.4334 82.388 99.4356 82.4669 99.4375 82.562C99.4413 82.7521 99.4438 83 99.4451 83.2865C99.4478 83.8591 99.446 84.5791 99.4424 85.2855C99.4389 85.9917 99.4335 86.683 99.4291 87.1979C99.4268 87.4554 99.4248 87.6686 99.4234 87.8175C99.4227 87.892 99.4221 87.9503 99.4217 87.99C99.4215 88.0099 99.4213 88.0251 99.4212 88.0353C99.4212 88.0404 99.4211 88.0443 99.4211 88.0469C99.4211 88.0482 99.4211 88.0492 99.4211 88.0498C99.421 88.0501 99.421 88.0504 99.421 88.0506C99.421 88.0506 99.421 88.0507 99.421 88.0507C99.421 88.0508 99.421 88.0508 99.921 88.0561ZM100.421 82.1599L100.37 64.1995L99.3699 64.2024L99.421 82.1628L100.421 82.1599ZM99.8626 63.701L91.6202 63.821L91.6348 64.8209L99.8771 64.7009L99.8626 63.701ZM91.3277 63.9208C88.1419 66.3077 83.2162 70.0188 79.0777 73.1421C77.0083 74.7038 75.1356 76.1187 73.7755 77.1478C73.0954 77.6623 72.5433 78.0805 72.1587 78.3725C71.9665 78.5184 71.8158 78.633 71.7118 78.7124C71.6599 78.7521 71.6191 78.7834 71.5904 78.8056C71.5762 78.8166 71.564 78.826 71.5546 78.8334C71.55 78.837 71.5448 78.8412 71.5398 78.8452C71.5374 78.8471 71.5338 78.8501 71.5297 78.8536C71.5281 78.8549 71.5166 78.8645 71.5033 78.8774L72.198 79.5967C72.176 79.6179 72.1533 79.6348 72.1732 79.6191C72.1789 79.6146 72.1882 79.6074 72.2016 79.597C72.2282 79.5765 72.2673 79.5465 72.3188 79.5071C72.4216 79.4286 72.5714 79.3147 72.7634 79.169C73.1473 78.8775 73.6989 78.4597 74.3788 77.9452C75.7386 76.9164 77.6109 75.5018 79.6801 73.9403C83.8184 70.8171 88.743 67.1069 91.9273 64.7211L91.3277 63.9208ZM71.3742 79.0854L69.2032 85.9089L70.1562 86.2121L72.3271 79.3886L71.3742 79.0854ZM69.7421 109.727C76.3403 108.897 82.7104 106.772 88.5132 103.642L88.0384 102.762C82.3375 105.837 76.0853 107.922 69.6173 108.735L69.7421 109.727ZM88.5213 103.638C96.056 99.3904 100.023 94.1075 100.42 88.3757L99.4222 88.3066C99.0574 93.5733 95.4068 98.6085 88.0303 102.766L88.5213 103.638ZM69.1797 86.0605V109.231H70.1797V86.0605H69.1797Z" fill="#202123"/>
<path d="M69.6786 86.014C76.2117 85.1923 82.5229 83.1761 88.2747 80.0734C103.643 71.3922 103.69 57.3926 88.8076 48.5552L61.1992 64.863L69.6786 86.014Z" fill="white" stroke="#202123" stroke-linejoin="round"/>
<path d="M69.668 100.598L62.8711 92.3684L61.2429 88.2485L34.7913 73.3508V72.3668H33.0298L31.7253 71.6219C31.2968 71.861 30.8778 72.1093 30.4779 72.3668L20.0039 78.565V87.5496C20.0039 93.3524 23.8698 99.1551 31.7062 103.578C41.9803 109.381 56.7374 111.062 69.668 109.223V100.598Z" fill="#150035" stroke="#202123" stroke-linejoin="round"/>
<path d="M39.4395 18C36.7626 18.8915 34.2462 20.1112 31.793 21.4768L61.394 38.0246L39.7665 18.2675L39.4395 18Z" fill="#166CFB"/>
<path d="M39.4395 18L39.756 17.613L39.2815 17.5256L39.4395 18ZM31.793 21.4768L31.5498 21.0399C31.3914 21.1281 31.2931 21.295 31.293 21.4763C31.2928 21.6576 31.3908 21.8247 31.549 21.9132L31.793 21.4768ZM61.394 38.0246L61.15 38.461C61.3716 38.5849 61.6509 38.523 61.7995 38.3171C61.948 38.1112 61.9187 37.8267 61.7312 37.6554L61.394 38.0246ZM39.7665 18.2675L40.1037 17.8983L40.083 17.8804L39.7665 18.2675ZM39.2815 17.5256C36.5647 18.4304 34.0185 19.6657 31.5498 21.0399L32.0362 21.9136C34.4739 20.5567 36.9605 19.3526 39.5974 18.4744L39.2815 17.5256ZM31.549 21.9132L61.15 38.461L61.6379 37.5881L32.0369 21.0403L31.549 21.9132ZM61.7312 37.6554L40.1037 17.8983L39.4293 18.6366L61.0567 38.3937L61.7312 37.6554ZM40.083 17.8804L39.756 17.613L39.1229 18.387L39.45 18.6545L40.083 17.8804Z" fill="#202123"/>
<path d="M31.7943 21.4769L31.7188 62.5276L61.2364 79.1817L61.3953 38.0246L31.7943 21.4769Z" fill="#166CFB"/>
<path d="M31.7943 21.4769L32.0383 21.0405C31.8836 20.954 31.6946 20.9559 31.5417 21.0454C31.3887 21.135 31.2946 21.2988 31.2943 21.476L31.7943 21.4769ZM31.7188 62.5276L31.2188 62.5267C31.2184 62.7074 31.3156 62.8742 31.4731 62.9631L31.7188 62.5276ZM61.2364 79.1817L60.9907 79.6172C61.1452 79.7044 61.3343 79.7032 61.4877 79.614C61.6411 79.5248 61.7357 79.3611 61.7364 79.1837L61.2364 79.1817ZM61.3953 38.0246L61.8953 38.0266C61.896 37.8448 61.7979 37.6769 61.6393 37.5882L61.3953 38.0246ZM31.2943 21.476L31.2188 62.5267L32.2187 62.5285L32.2943 21.4778L31.2943 21.476ZM31.4731 62.9631L60.9907 79.6172L61.4821 78.7463L31.9644 62.0921L31.4731 62.9631ZM61.7364 79.1837L61.8953 38.0266L60.8953 38.0227L60.7364 79.1798L61.7364 79.1837ZM61.6393 37.5882L32.0383 21.0405L31.5503 21.9134L61.1513 38.4611L61.6393 37.5882Z" fill="#202123"/>
<path d="M69.6687 100.405L61.2223 79.2183L31.7047 62.509C16.0984 71.3281 16.0984 85.6188 31.7047 94.4379C41.9787 100.241 56.481 102.244 69.6687 100.405Z" fill="white" stroke="#202123" stroke-linejoin="round"/>
</svg>
