<svg width="48" height="48" viewBox="0 0 48 48" fill="none" xmlns="http://www.w3.org/2000/svg">
<g clip-path="url(#clip0)">
<path d="M18.6528 43.7107C20.0592 42.7507 24.4128 39.8707 24.4128 39.8707C24.429 39.8569 24.4402 39.8381 24.4445 39.8173C24.4488 39.7964 24.4461 39.7747 24.4368 39.7555C24.4313 39.7427 24.4231 39.7313 24.4128 39.7219L17.0928 30.8419C17.0855 30.8243 17.0732 30.8093 17.0574 30.7987C17.0416 30.7881 17.023 30.7824 17.004 30.7824C16.9849 30.7824 16.9663 30.7881 16.9505 30.7987C16.9347 30.8093 16.9224 30.8243 16.9152 30.8419L15.7728 36.2419L15.4896 39.9475C15.4843 39.9597 15.4816 39.9727 15.4816 39.9859C15.4816 39.9992 15.4843 40.0122 15.4896 40.0243L18.48 43.5283C18.576 43.6291 18.5808 43.7299 18.6528 43.7107Z" fill="#B8BABF" stroke="#202123" stroke-miterlimit="10"/>
<path d="M40.5119 16.73L13.0223 0.841964C12.7633 0.661208 12.4654 0.543984 12.1527 0.499787C11.84 0.45559 11.5213 0.48566 11.2223 0.587564L5.84633 3.81796C5.82839 3.83187 5.81387 3.8497 5.80388 3.87008C5.79389 3.89047 5.7887 3.91286 5.7887 3.93556C5.7887 3.95826 5.79389 3.98066 5.80388 4.00105C5.81387 4.02143 5.82839 4.03926 5.84633 4.05316L12.2687 10.898C12.2797 10.929 12.2797 10.9629 12.2687 10.994V22.178C12.321 23.1573 12.6033 24.1106 13.0928 24.9604C13.5824 25.8102 14.2653 26.5327 15.0863 27.0692L19.1903 29.3876L19.4735 29.7908C20.2493 33.7061 22.5403 37.1565 25.8479 39.3908C26.0447 39.53 26.1791 39.3332 26.0447 39.0788C25.3823 37.8164 24.0911 35.09 24.5183 32.9348L24.9695 32.738L33.4511 37.6148C33.4819 37.6316 33.5057 37.6588 33.5183 37.6916L37.0559 47.1524C37.0626 47.1739 37.0741 47.1936 37.0895 47.21C37.1051 47.2256 37.1239 47.2376 37.1447 47.2451C37.1654 47.2525 37.1876 47.2553 37.2095 47.2532C37.2301 47.2576 37.2514 47.2576 37.2719 47.2532L42.5999 44.0852C42.8565 43.8822 43.0582 43.6181 43.1865 43.3171C43.3148 43.016 43.3656 42.6877 43.3343 42.362V21.6116C43.2801 20.6334 42.9963 19.6818 42.506 18.8338C42.0156 17.9857 41.3325 17.265 40.5119 16.73Z" fill="#166CFB" stroke="#202123" stroke-miterlimit="10"/>
<path d="M43.3249 25.5524L37.8529 28.8692V46.9363L43.1329 44.0324L43.3105 42.7315L43.3249 25.5524Z" fill="#041733"/>
<path d="M35.1168 20.0659L7.54565 4.13954C6.03365 3.27074 4.80005 3.97154 4.80005 5.72354V26.5507C4.84465 27.5111 5.11685 28.4472 5.59421 29.2817C6.07157 30.1163 6.74043 30.8254 7.54565 31.3507L11.7888 33.7939C11.8452 33.8296 11.8935 33.8766 11.9307 33.932C11.9679 33.9874 11.9932 34.0499 12.0048 34.1155C12.7751 38.0421 15.0709 41.503 18.3888 43.7395C18.5856 43.8787 18.72 43.6819 18.5856 43.4275C17.8992 42.1267 16.632 39.2419 17.1072 37.0579C17.1072 36.9523 17.2224 36.9187 17.3328 36.9811L35.1264 47.2819C36.6432 48.1507 37.8721 47.4499 37.8721 45.6979V24.8179C37.8189 23.865 37.5418 22.938 37.063 22.1123C36.5843 21.2866 35.9175 20.5855 35.1168 20.0659Z" fill="white" stroke="#202123" stroke-miterlimit="10"/>
<g clip-path="url(#clip1)">
<path d="M16.0633 24.5C15.604 24.2348 15.1634 23.7697 14.8386 23.2071C14.5138 22.6445 14.3313 22.0304 14.3313 21.5C14.3313 20.9696 14.5138 20.5662 14.8386 20.3787C15.1634 20.1911 15.604 20.2348 16.0633 20.5C16.5227 20.7652 16.9633 21.2303 17.2881 21.7929C17.6129 22.3555 17.7954 22.9696 17.7954 23.5C17.7954 24.0304 17.6129 24.4338 17.2881 24.6213C16.9633 24.8089 16.5227 24.7652 16.0633 24.5ZM20.9564 23.325C20.5996 21.9495 19.9374 20.5543 19.061 19.3318C18.1845 18.1094 17.1372 17.1199 16.0633 16.5C14.6852 15.7044 13.3636 15.5734 12.3891 16.136C11.4146 16.6986 10.8672 17.9087 10.8672 19.5C10.8672 21.0913 11.4146 22.9335 12.3891 24.6213C13.3636 26.3091 14.6852 27.7044 16.0633 28.5C17.1372 29.12 18.1845 29.34 19.061 29.1295C19.9374 28.919 20.5996 28.2885 20.9564 27.325L24.7236 29.5L24.7236 33.5L28.1877 35.5L28.1877 31.5L29.9197 32.5L29.9197 28.5L20.9564 23.325Z" fill="#202123"/>
</g>
</g>
<defs>
<clipPath id="clip0">
<rect width="48" height="48" fill="white"/>
</clipPath>
<clipPath id="clip1">
<rect width="24" height="24" fill="white" transform="matrix(0.866025 0.5 -2.20305e-08 1 10 7)"/>
</clipPath>
</defs>
</svg>
