<svg width="120" height="120" viewBox="0 0 120 120" fill="none" xmlns="http://www.w3.org/2000/svg">
<path d="M5.43835 52.1693C5.46401 53.4607 6.14194 54.6556 7.24931 55.3089L39.4812 74.3242L73.1967 93.1282C76.6805 95.1089 82.4923 94.8248 85.5172 93.1282L112.746 77.4232C113.177 77.1871 113.415 76.7441 113.539 76.5501C115.167 73.729 114.986 70.999 114.714 66.904L113.047 69.6936C112.775 69.4995 112.491 69.8558 112.198 69.6936L47.7485 33.0634C44.2647 31.0743 38.9882 30.8654 35.9718 32.5369L8.0422 48.4164L5.46124 44.4262C5.24093 46.3496 5.37885 49.1751 5.43835 52.1693Z" fill="#202123" stroke="#202123" stroke-width="0.5" stroke-linejoin="round"/>
<path d="M7.37299 42.4377L35.5997 26.3749C38.6162 24.6616 43.8927 24.8706 47.385 26.8763L111.86 63.5066C115.343 65.4873 115.726 68.521 112.709 70.1925L84.4315 86.2553C81.4151 87.9686 76.1385 87.7596 72.6463 85.7539L8.22268 49.132C4.73894 47.1513 4.34808 44.1844 7.37299 42.4377Z" fill="white" stroke="#202123" stroke-width="0.5"/>
<path d="M42.0461 28.5896C42.0461 28.5896 17.6515 42.5714 10.9049 46.6916C10.7059 46.774 10.5399 46.9184 10.4325 47.1026C10.325 47.2868 10.282 47.5006 10.3101 47.7112C10.3101 47.8449 10.752 48.2461 10.752 48.2461L74.0455 84.0908C75.6266 84.8754 77.3728 85.2841 79.1437 85.2841C80.9146 85.2841 82.6608 84.8754 84.2418 84.0908L111.33 68.6129C112.859 67.7772 112.859 66.3314 111.33 65.4706L46.0312 28.5394C45.4461 28.1341 44.746 27.9207 44.0304 27.9297C43.3148 27.9387 42.6204 28.1696 42.0461 28.5896Z" fill="#166CFB"/>
<path d="M19.424 38.3342C19.339 38.3068 19.265 38.2536 19.2126 38.1823C19.1601 38.111 19.1318 38.0253 19.1318 37.9373C19.1318 37.8493 19.1601 37.7635 19.2126 37.6922C19.265 37.6209 19.339 37.5678 19.424 37.5403C19.6397 37.4317 19.8785 37.3751 20.1208 37.3751C20.363 37.3751 20.6018 37.4317 20.8175 37.5403C20.9025 37.5678 20.9765 37.6209 21.029 37.6922C21.0815 37.7635 21.1097 37.8493 21.1097 37.9373C21.1097 38.0253 21.0815 38.111 21.029 38.1823C20.9765 38.2536 20.9025 38.3068 20.8175 38.3342C20.6018 38.4428 20.363 38.4994 20.1208 38.4994C19.8785 38.4994 19.6397 38.4428 19.424 38.3342Z" fill="#202123"/>
<path d="M16.7531 39.8054C16.6681 39.7779 16.5941 39.7248 16.5417 39.6535C16.4892 39.5822 16.4609 39.4965 16.4609 39.4085C16.4609 39.3204 16.4892 39.2347 16.5417 39.1634C16.5941 39.0921 16.6681 39.039 16.7531 39.0115C16.9688 38.9029 17.2076 38.8463 17.4499 38.8463C17.6921 38.8463 17.9309 38.9029 18.1466 39.0115C18.2316 39.039 18.3056 39.0921 18.3581 39.1634C18.4106 39.2347 18.4388 39.3204 18.4388 39.4085C18.4388 39.4965 18.4106 39.5822 18.3581 39.6535C18.3056 39.7248 18.2316 39.7779 18.1466 39.8054C17.9309 39.914 17.6921 39.9706 17.4499 39.9706C17.2076 39.9706 16.9688 39.914 16.7531 39.8054Z" fill="#202123"/>
<path d="M22.0763 35.9774L30.2334 31.3224C30.4396 31.2314 30.6647 31.1893 30.8905 31.1995C31.1163 31.2096 31.3365 31.2718 31.5334 31.3809C31.9158 31.5982 31.9583 31.9241 31.6269 32.1163L23.4698 36.7714C23.2636 36.8623 23.0385 36.9044 22.8127 36.8943C22.587 36.8841 22.3667 36.822 22.1698 36.7129C21.7789 36.4872 21.7365 36.1613 22.0763 35.9774Z" fill="#202123"/>
<path d="M26.9553 64.961C26.8086 64.958 26.6651 64.9177 26.5389 64.844L22.5794 62.5708C22.3752 62.4492 22.2028 62.2824 22.0759 62.0836C21.949 61.8848 21.8712 61.6595 21.8486 61.4258V61.3339C21.8347 61.2357 21.8507 61.1357 21.8946 61.0464C21.9384 60.9572 22.0082 60.8827 22.095 60.8324C22.2022 60.7831 22.3208 60.7626 22.4387 60.7728C22.5566 60.7831 22.6696 60.8239 22.7663 60.8909L26.7259 63.1391C26.93 63.2606 27.1025 63.4275 27.2294 63.6263C27.3562 63.8251 27.4341 64.0503 27.4566 64.284V64.376C27.4695 64.4466 27.466 64.5191 27.4464 64.5882C27.4268 64.6573 27.3916 64.7211 27.3434 64.775C27.2952 64.8288 27.2352 64.8712 27.168 64.8991C27.1008 64.927 27.0281 64.9396 26.9553 64.9359V64.961ZM22.4009 61.1751H22.333C22.282 61.1751 22.2735 61.2921 22.2735 61.3339V61.4258C22.2921 61.597 22.3509 61.7616 22.4453 61.9067C22.5397 62.0517 22.667 62.1732 22.8173 62.2616L26.7768 64.5097C26.9213 64.5933 27.0233 64.5933 27.0657 64.5682C27.1082 64.5431 27.1252 64.4512 27.1252 64.4094V64.3175C27.1066 64.1462 27.0478 63.9816 26.9534 63.8366C26.859 63.6916 26.7317 63.5701 26.5814 63.4817L22.6219 61.2503C22.5559 61.2072 22.4799 61.1814 22.4009 61.1751Z" fill="#166CFB"/>
<path d="M95.8656 84.5626C95.7787 84.5123 95.7089 84.4379 95.6651 84.3486C95.6212 84.2594 95.6052 84.1593 95.6191 84.0612V83.9692C95.6417 83.7355 95.7195 83.5103 95.8464 83.3115C95.9733 83.1126 96.1457 82.9458 96.3499 82.8243L100.309 80.5761C100.406 80.509 100.519 80.4683 100.637 80.458C100.755 80.4477 100.873 80.4683 100.981 80.5176C101.068 80.5679 101.137 80.6424 101.181 80.7316C101.225 80.8209 101.241 80.9209 101.227 81.0191V81.111C101.205 81.3447 101.127 81.57 101 81.7688C100.873 81.9676 100.701 82.1344 100.496 82.256L96.5368 84.5041C96.4106 84.5778 96.2672 84.6181 96.1205 84.6211C96.0318 84.6237 95.9439 84.6036 95.8656 84.5626ZM100.488 80.9188L96.5283 83.1669C96.3785 83.2558 96.2515 83.3774 96.1572 83.5223C96.0629 83.6672 96.0038 83.8316 95.9845 84.0027V84.0779C95.9845 84.1197 95.9845 84.2116 96.044 84.2367C96.1035 84.2617 96.1884 84.2367 96.3329 84.1782L100.292 81.93C100.443 81.8417 100.57 81.7202 100.664 81.5752C100.759 81.4301 100.818 81.2655 100.836 81.0943V81.0024C100.836 80.9606 100.836 80.8686 100.777 80.8436H100.709C100.631 80.8473 100.555 80.8703 100.488 80.9104V80.9188Z" fill="#166CFB"/>
<path d="M19.468 60.698C19.3213 60.695 19.1778 60.6547 19.0517 60.581L16.8255 59.319C16.6213 59.1975 16.4489 59.0306 16.322 58.8318C16.1951 58.633 16.1173 58.4077 16.0947 58.1741V58.0905C16.0808 57.9923 16.0968 57.8923 16.1406 57.803C16.1845 57.7138 16.2543 57.6393 16.3411 57.589C16.4483 57.5397 16.5669 57.5192 16.6848 57.5294C16.8027 57.5397 16.9157 57.5805 17.0124 57.6475L19.2386 58.9095C19.4439 59.0319 19.617 59.2 19.7439 59.4004C19.8708 59.6007 19.9481 59.8277 19.9693 60.0628V60.1547C19.9822 60.2253 19.9787 60.2979 19.9591 60.367C19.9395 60.4361 19.9043 60.4999 19.8561 60.5538C19.8079 60.6076 19.748 60.65 19.6808 60.6779C19.6136 60.7058 19.5408 60.7183 19.468 60.7147V60.698ZM16.6045 57.8983H16.5366C16.4856 57.8983 16.4771 58.0153 16.4771 58.057V58.149C16.4957 58.3202 16.5545 58.4848 16.6489 58.6298C16.7433 58.7749 16.8706 58.8964 17.0209 58.9847L19.2471 60.2467C19.3915 60.3303 19.4935 60.3303 19.536 60.3052C19.5785 60.2801 19.5955 60.1882 19.5955 60.1464V60.0628C19.5768 59.8916 19.518 59.727 19.4236 59.582C19.3293 59.4369 19.2019 59.3154 19.0517 59.2271L16.8255 57.9651C16.7587 57.925 16.6827 57.902 16.6045 57.8983Z" fill="#166CFB"/>
<path d="M86.5762 71.212L86.3213 71.6383L86.9756 72.006L87.2305 71.5798L86.5762 71.212Z" fill="white"/>
<path d="M93.9515 75.9423L92.7959 75.2821L93.0424 74.8559L94.1979 75.5161L93.9515 75.9423ZM91.6149 74.6052L90.4593 73.9449L90.7057 73.5187L91.8613 74.1789L91.6149 74.6052ZM89.2952 73.2847L88.1396 72.6245L88.3861 72.1982L89.5416 72.8585L89.2952 73.2847Z" fill="white"/>
<path d="M95.3535 76.2017L95.0986 76.6279L95.7529 76.9956L96.0078 76.5694L95.3535 76.2017Z" fill="white"/>
<path d="M95.8814 66.4653L76.6274 77.3298L69.626 73.3183L88.863 62.4537L95.8814 66.4653ZM76.6189 76.8535L95.0487 66.4653L88.8545 62.9217L70.4247 73.31L76.6189 76.8535Z" fill="white"/>
<path d="M95.4717 65.011L76.617 75.6333L70.0234 71.8641L88.8696 61.2335L95.4717 65.011Z" fill="#150035"/>
<path d="M29.5845 54.8397C29.1956 54.8431 28.8123 54.7482 28.4714 54.5639L19.898 49.6916C19.7444 49.6214 19.6125 49.5126 19.5155 49.3761C19.4185 49.2396 19.3599 49.0803 19.3457 48.9143C19.3513 48.7794 19.3937 48.6485 19.4684 48.5353C19.5432 48.4221 19.6475 48.3307 19.7705 48.2708L46.1875 33.2443C46.5017 33.0984 46.8468 33.0283 47.1941 33.0399C47.5414 33.0516 47.8808 33.1445 48.1842 33.3112L56.7576 38.1835C56.9112 38.2536 57.0432 38.3625 57.1401 38.499C57.2371 38.6355 57.2957 38.7948 57.3099 38.9607C57.3043 39.0956 57.262 39.2265 57.1872 39.3398C57.1124 39.453 57.0081 39.5443 56.8851 39.6042L30.4682 54.6308C30.1966 54.7735 29.8924 54.8455 29.5845 54.8397ZM47.0881 33.5368C46.8697 33.5311 46.6534 33.58 46.4594 33.6789L20.034 48.7221C19.966 48.7221 19.8555 48.8391 19.8555 48.9394C19.8555 49.0397 19.9405 49.1567 20.1529 49.2821L28.7263 54.1293C28.9538 54.252 29.2069 54.3218 29.4661 54.3334C29.7254 54.345 29.9838 54.2981 30.2218 54.1962L56.6557 39.1697C56.7236 39.1697 56.8341 39.0527 56.8341 38.9524C56.8341 38.8521 56.7491 38.7351 56.5367 38.6097L47.9548 33.7457C47.6886 33.605 47.3904 33.5331 47.0881 33.5368Z" fill="white"/>
<path d="M35.0695 57.9575C34.6805 57.961 34.2972 57.866 33.9564 57.6817L32.1041 56.6287C31.9505 56.5585 31.8185 56.4497 31.7215 56.3132C31.6245 56.1767 31.566 56.0174 31.5518 55.8515C31.5564 55.7164 31.5985 55.585 31.6733 55.4717C31.7482 55.3583 31.853 55.2671 31.9766 55.2079L58.4105 40.1647C58.7247 40.0188 59.0698 39.9487 59.4171 39.9604C59.7644 39.972 60.1039 40.065 60.4073 40.2316L62.2596 41.2846C62.4132 41.3547 62.5451 41.4636 62.6421 41.6001C62.7391 41.7366 62.7977 41.8959 62.8119 42.0618C62.8063 42.1967 62.7639 42.3276 62.6892 42.4409C62.6144 42.5541 62.5101 42.6454 62.3871 42.7053L35.9956 57.7486C35.7115 57.8985 35.3916 57.9707 35.0695 57.9575ZM59.2857 40.4739C59.0673 40.4682 58.8509 40.5171 58.6569 40.616L32.223 55.6592C32.155 55.6592 32.0446 55.7762 32.0446 55.8765C32.0446 55.9768 32.1295 56.0938 32.342 56.2192L34.1943 57.2722C34.4218 57.3949 34.6749 57.4647 34.9341 57.4763C35.1934 57.4879 35.4518 57.441 35.6898 57.3391L62.1322 42.2958C62.2001 42.2958 62.3106 42.1788 62.3106 42.0785C62.3106 41.9782 62.2256 41.8612 62.0132 41.7359L60.1609 40.6829C59.8929 40.5379 59.5915 40.463 59.2857 40.4656V40.4739Z" fill="white"/>
<path d="M52.6535 67.944C52.2645 67.9475 51.8812 67.8525 51.5404 67.6682L49.688 66.6152C49.5345 66.5451 49.4025 66.4362 49.3055 66.2997C49.2085 66.1632 49.15 66.0039 49.1357 65.838C49.1404 65.7029 49.1824 65.5716 49.2573 65.4582C49.3321 65.3448 49.437 65.2536 49.5606 65.1945L75.9945 50.1512C76.3089 50.006 76.6539 49.9363 77.0011 49.9479C77.3482 49.9595 77.6876 50.0521 77.9913 50.2181L79.8436 51.2711C79.9972 51.3413 80.1291 51.4501 80.2261 51.5866C80.3231 51.7231 80.3817 51.8824 80.3959 52.0483C80.3903 52.1832 80.3479 52.3142 80.2732 52.4274C80.1984 52.5406 80.0941 52.632 79.9711 52.6919L53.5371 67.7351C53.2656 67.8779 52.9613 67.9498 52.6535 67.944ZM76.8697 50.4604C76.6512 50.4547 76.4349 50.5036 76.2409 50.6025L49.807 65.6458C49.739 65.6458 49.6286 65.7628 49.6286 65.8631C49.6286 65.9633 49.7135 66.0803 49.926 66.2057L51.7783 67.2587C52.0058 67.3814 52.2589 67.4513 52.5181 67.4629C52.7773 67.4744 53.0358 67.4275 53.2737 67.3256L79.7076 52.2823C79.7756 52.2823 79.8861 52.1653 79.8861 52.0651C79.8861 51.9648 79.8011 51.8478 79.5887 51.7224L77.7364 50.6694C77.47 50.529 77.1719 50.4571 76.8697 50.4604Z" fill="white"/>
<path d="M58.0823 71.0283C57.6934 71.0313 57.3102 70.9364 56.9692 70.7525L51.1148 67.4848C50.9612 67.4146 50.8293 67.3058 50.7323 67.1693C50.6353 67.0328 50.5767 66.8735 50.5625 66.7075C50.5672 66.5724 50.6092 66.4411 50.684 66.3277C50.7589 66.2143 50.8638 66.1232 50.9873 66.064L77.4212 51.0208C77.7355 50.8749 78.0806 50.8048 78.4279 50.8164C78.7752 50.8281 79.1146 50.921 79.418 51.0876L85.2724 54.3721C85.4254 54.4429 85.5569 54.552 85.6538 54.6883C85.7507 54.8247 85.8096 54.9836 85.8247 55.1493C85.82 55.2844 85.778 55.4157 85.7031 55.5291C85.6283 55.6425 85.5234 55.7337 85.3998 55.7928L58.9659 70.8361C58.6928 70.973 58.3887 71.0392 58.0823 71.0283ZM78.3049 51.33C78.0865 51.3243 77.8701 51.3732 77.6762 51.4721L51.2423 66.5153C51.1743 66.5153 51.0638 66.6323 51.0638 66.7326C51.0638 66.8329 51.1488 66.9499 51.3612 67.0752L57.2326 70.3263C57.4601 70.449 57.7132 70.5188 57.9724 70.5304C58.2316 70.542 58.4901 70.495 58.728 70.3931L85.1619 55.3499C85.2299 55.3499 85.3404 55.2329 85.3404 55.1326C85.3404 55.0323 85.2554 54.9153 85.043 54.7899L79.1971 51.5389C78.9381 51.3925 78.646 51.3121 78.3474 51.3049L78.3049 51.33Z" fill="white"/>
<path d="M47.1181 64.8017C46.7292 64.8051 46.3459 64.7101 46.005 64.5259L37.814 59.8708C37.6605 59.8007 37.5285 59.6918 37.4315 59.5553C37.3345 59.4188 37.2759 59.2595 37.2617 59.0936C37.2673 58.9587 37.3097 58.8278 37.3844 58.7146C37.4592 58.6013 37.5636 58.51 37.6866 58.4501L49.1234 51.923C49.4377 51.7771 49.7827 51.707 50.13 51.7187C50.4773 51.7303 50.8168 51.8233 51.1202 51.9899L59.2942 56.67C59.4478 56.7401 59.5798 56.849 59.6768 56.9855C59.7738 57.122 59.8323 57.2813 59.8465 57.4472C59.841 57.5821 59.7986 57.713 59.7238 57.8263C59.6491 57.9395 59.5447 58.0308 59.4217 58.0907L47.9848 64.6178C47.716 64.7492 47.4181 64.8124 47.1181 64.8017ZM50.0071 52.2657C49.7887 52.2599 49.5723 52.3088 49.3783 52.4077L37.933 58.9181C37.865 58.9181 37.7545 59.0351 37.7545 59.1354C37.7545 59.2357 37.8395 59.3527 38.0519 59.478L46.2515 64.0997C46.479 64.2224 46.7321 64.2922 46.9913 64.3038C47.2505 64.3154 47.509 64.2684 47.7469 64.1665L59.1838 57.6645C59.2518 57.6645 59.3622 57.5475 59.3622 57.4472C59.3622 57.3469 59.2772 57.2299 59.0648 57.1046L50.8738 52.4579C50.6132 52.3173 50.3213 52.2426 50.0241 52.2406L50.0071 52.2657Z" fill="white"/>
<path d="M62.113 56.269C61.7241 56.2717 61.341 56.1768 60.9999 55.9932L52.8088 51.3382C52.6525 51.2685 52.518 51.1588 52.4194 51.0207C52.3208 50.8825 52.2616 50.7209 52.248 50.5526C52.2527 50.4175 52.2947 50.2862 52.3696 50.1728C52.4444 50.0594 52.5493 49.9682 52.6729 49.9091L64.1182 43.3485C64.4325 43.2026 64.7776 43.1326 65.1249 43.1442C65.4722 43.1558 65.8116 43.2488 66.115 43.4154L74.306 48.0704C74.4596 48.1406 74.5916 48.2494 74.6886 48.3859C74.7856 48.5224 74.8441 48.6817 74.8583 48.8477C74.8537 48.9828 74.8117 49.1141 74.7368 49.2275C74.6619 49.3409 74.5571 49.432 74.4335 49.4912L62.9966 56.0601C62.7251 56.2029 62.4208 56.2748 62.113 56.269ZM65.0019 43.733C64.7835 43.7273 64.5671 43.7761 64.3732 43.8751L52.9363 50.3938C52.8683 50.3938 52.7579 50.5108 52.7579 50.6111C52.7579 50.7114 52.8428 50.8284 53.0553 50.9537L61.2548 55.567C61.4823 55.6897 61.7354 55.7595 61.9946 55.7711C62.2538 55.7827 62.5123 55.7358 62.7502 55.6339L74.2296 49.1402C74.2976 49.1402 74.408 49.0232 74.408 48.9229C74.408 48.8226 74.323 48.7056 74.1106 48.5802L65.9196 43.9252C65.659 43.7846 65.3671 43.71 65.0699 43.7079L65.0019 43.733Z" fill="white"/>
<path d="M52.2743 52.9426L39.2061 60.3556L39.461 60.7818L52.5207 53.3772L52.2743 52.9426Z" fill="white"/>
<path d="M67.3127 44.3015L54.2529 51.7061L54.5078 52.1324L67.5676 44.711L67.3127 44.3015Z" fill="white"/>
<path d="M37.0414 46.3761L36.2582 46.8129L34.1109 45.6262L33.7656 45.4201L33.3951 45.1976C33.403 45.2964 33.403 45.3956 33.3951 45.4943L33.3109 45.9311L32.4688 45.8734L32.713 44.6619L33.353 44.2993L37.0414 46.3761Z" fill="white"/>
<path d="M38.3382 43.5576C38.9838 43.9257 39.3571 44.2553 39.4582 44.5465C39.5592 44.8377 39.3908 45.1124 38.9529 45.3707C38.5135 45.614 38.0047 45.7095 37.5045 45.6426C36.8862 45.5559 36.2928 45.3455 35.7613 45.0245C35.1101 44.6564 34.734 44.3268 34.6329 44.0356C34.5319 43.7444 34.7003 43.4697 35.1382 43.2115C35.5691 42.9786 36.0647 42.8863 36.5529 42.9477C37.1851 43.0264 37.7933 43.2341 38.3382 43.5576ZM36.5529 44.5877C36.894 44.799 37.2621 44.9652 37.6477 45.0822C37.8766 45.1529 38.1248 45.1322 38.3382 45.0245C38.5178 44.9201 38.5487 44.791 38.4308 44.6372C38.1898 44.3817 37.9047 44.1697 37.5887 44.0109C37.2456 43.7978 36.8745 43.6315 36.4855 43.5164C36.2565 43.4466 36.0086 43.4673 35.795 43.5741C35.6098 43.6785 35.5789 43.8076 35.7024 43.9614C35.9469 44.2166 36.2346 44.4285 36.5529 44.5877Z" fill="white"/>
<path d="M41.3027 41.8765C41.9483 42.2446 42.3216 42.5742 42.4227 42.8654C42.5237 43.1566 42.3553 43.4313 41.9174 43.6896C41.478 43.9328 40.9692 44.0284 40.469 43.9615C39.8497 43.8835 39.2534 43.6815 38.7174 43.3682C38.0662 43 37.69 42.6704 37.589 42.3792C37.4879 42.088 37.6563 41.8133 38.0942 41.5551C38.5363 41.3106 39.0481 41.215 39.5511 41.2831C40.1704 41.3611 40.7666 41.5631 41.3027 41.8765ZM39.4921 42.8984C39.8332 43.1096 40.2013 43.2759 40.5869 43.3929C40.8158 43.4636 41.064 43.4429 41.2774 43.3352C41.457 43.2308 41.4879 43.1017 41.37 42.9478C41.1283 42.6953 40.8433 42.4861 40.5279 42.3297C40.1848 42.1167 39.8137 41.9504 39.4248 41.8353C39.1957 41.7655 38.9479 41.7862 38.7342 41.893C38.549 41.9973 38.5181 42.1265 38.6416 42.2803C38.8829 42.5377 39.1678 42.7524 39.4837 42.9149L39.4921 42.8984Z" fill="white"/>
<path d="M44.2581 40.22C44.9037 40.5882 45.2771 40.9178 45.3781 41.209C45.4792 41.5002 45.3107 41.7749 44.8728 42.0331C44.4334 42.2764 43.9246 42.372 43.4244 42.3051C42.8062 42.2184 42.2128 42.008 41.6813 41.687C41.03 41.3189 40.6539 40.9892 40.5528 40.698C40.4518 40.4069 40.6202 40.1321 41.0581 39.8739C41.5001 39.6294 42.012 39.5339 42.5149 39.602C43.1332 39.6886 43.7266 39.899 44.2581 40.22ZM42.4476 41.242C42.7887 41.4532 43.1568 41.6195 43.5423 41.7364C43.7712 41.8072 44.0195 41.7864 44.2328 41.6788C44.4125 41.5744 44.4434 41.4453 44.3255 41.2914C44.0837 41.0389 43.7987 40.8297 43.4834 40.6733C43.1403 40.4603 42.7691 40.2939 42.3802 40.1788C42.1512 40.109 41.9033 40.1297 41.6897 40.2365C41.5044 40.3409 41.4735 40.47 41.597 40.6239C41.839 40.8783 42.1239 41.0902 42.4392 41.2502L42.4476 41.242Z" fill="white"/>
</svg>
