<svg width="45" height="37" viewBox="0 0 45 37" fill="none" xmlns="http://www.w3.org/2000/svg">
<path d="M12.8657 29.4873C13.0257 29.5502 13.1538 29.5816 13.3138 29.613C13.3458 29.613 13.4098 29.6445 13.4418 29.6445C13.5378 29.6759 13.6659 29.7073 13.7619 29.7388C13.7939 29.7388 13.8579 29.7702 13.8899 29.7702C14.0179 29.8016 14.1779 29.8331 14.306 29.8331H14.338C14.498 29.8645 14.658 29.8645 14.7861 29.896C14.8181 29.896 14.8821 29.896 14.9141 29.896C15.0421 29.896 15.1381 29.9274 15.2661 29.9274C15.3302 29.9274 15.3622 29.9274 15.4262 29.9274C15.5542 29.9274 15.6822 29.9274 15.8422 29.9274C15.8742 29.9274 15.9063 29.9274 15.9063 29.9274C16.0663 29.9274 16.2263 29.9274 16.3863 29.896C16.4183 29.896 16.4824 29.896 16.5144 29.896C16.6424 29.896 16.7384 29.8645 16.8664 29.8645C16.9304 29.8645 16.9624 29.8645 17.0265 29.8331C17.1545 29.8017 17.2825 29.8016 17.4105 29.7702C17.4425 29.7702 17.4745 29.7702 17.5065 29.7702C17.6666 29.7388 17.8266 29.7073 17.9866 29.6759C18.0186 29.6759 18.0826 29.6445 18.1146 29.6445C18.2427 29.613 18.3707 29.5816 18.4667 29.5502C18.5307 29.5502 18.5627 29.5187 18.6267 29.5187C18.7548 29.4873 18.8828 29.4559 19.0108 29.4244C19.0428 29.4244 19.0748 29.393 19.1388 29.393C19.2989 29.3301 19.4589 29.2987 19.6189 29.2358C19.6509 29.2358 19.6829 29.2044 19.7149 29.2044C19.843 29.1729 19.971 29.1101 20.099 29.0472C20.163 29.0158 20.195 29.0158 20.259 28.9843C20.387 28.9214 20.5151 28.89 20.6111 28.8271C20.6431 28.7957 20.7071 28.7957 20.7391 28.7643C20.8991 28.7014 21.0592 28.6071 21.2192 28.5442C21.2512 28.5128 21.2832 28.5128 21.3152 28.4813C21.4432 28.4185 21.5713 28.3556 21.6993 28.2927C21.7633 28.2613 21.7953 28.2299 21.8593 28.1984C21.9873 28.1355 22.0834 28.0727 22.2114 28.0098C22.2434 27.9784 22.3074 27.9469 22.3394 27.9469C22.4994 27.8526 22.6595 27.7583 22.7875 27.664C22.8195 27.664 22.8195 27.6326 22.8515 27.6326C22.9795 27.5383 23.1075 27.4754 23.2356 27.3811C23.2676 27.3497 23.3316 27.3182 23.3636 27.2868C23.4596 27.1925 23.5876 27.1296 23.6836 27.0353C23.7156 27.0039 23.7797 26.9724 23.8117 26.941C23.9717 26.8152 24.0997 26.7209 24.2597 26.5952L24.2917 26.5638C24.4198 26.4694 24.5478 26.3437 24.6758 26.218C24.7078 26.1865 24.7718 26.1551 24.8038 26.0922C24.8999 25.9979 24.9959 25.9036 25.0919 25.8093C25.1239 25.7779 25.1879 25.7464 25.2199 25.6836C25.3159 25.5892 25.3799 25.5264 25.476 25.4321C25.54 25.3692 25.604 25.3063 25.668 25.212C25.732 25.1177 25.828 25.0548 25.892 24.9605C25.956 24.8977 26.0201 24.8348 26.0841 24.7405C26.1481 24.6462 26.2441 24.5833 26.3081 24.489C26.3721 24.4261 26.4361 24.3318 26.5001 24.2689C26.5641 24.1746 26.6602 24.0803 26.7242 23.986C26.7882 23.9231 26.8522 23.8288 26.8842 23.766C26.9482 23.6717 27.0122 23.5774 27.1082 23.483C27.1723 23.4202 27.2043 23.3259 27.2683 23.263C27.3323 23.1687 27.3963 23.0429 27.4923 22.9486C27.5243 22.8858 27.5883 22.8229 27.6203 22.7286C27.6843 22.6028 27.7804 22.4771 27.8444 22.3828C27.8764 22.3199 27.9084 22.257 27.9724 22.1942C28.0684 22.0056 28.1964 21.8169 28.2925 21.6283C28.4205 21.3768 28.5485 21.1254 28.6765 20.8739C28.7085 20.8424 28.7085 20.7796 28.7405 20.7481C28.8045 20.5909 28.9006 20.4338 28.9646 20.2766C28.9646 20.2452 28.9966 20.2452 28.9966 20.2137C29.0606 20.0251 29.1566 19.8679 29.2206 19.6793C29.2526 19.6164 29.2526 19.585 29.2846 19.5221C29.3166 19.3964 29.3806 19.2706 29.4127 19.1449C29.4447 19.082 29.4447 19.0192 29.4767 18.9563C29.5087 18.8305 29.5407 18.7048 29.6047 18.5791C29.6367 18.5162 29.6367 18.4533 29.6687 18.3904C29.7007 18.2333 29.7647 18.0761 29.7967 17.9503C29.7967 17.9189 29.7967 17.8875 29.8287 17.856C29.8607 17.6674 29.8927 17.5102 29.9567 17.3216C29.9567 17.2587 29.9888 17.2273 29.9888 17.1644C30.0208 17.0387 30.0208 16.913 30.0528 16.7872C30.0528 16.7243 30.0848 16.6615 30.0848 16.5986C30.0848 16.4728 30.1168 16.3785 30.1168 16.2528C30.1168 16.1899 30.1168 16.1271 30.1488 16.0642C30.1488 15.9384 30.1808 15.7813 30.1808 15.6555C30.1808 15.6241 30.1808 15.5926 30.1808 15.5612C30.1808 15.404 30.1808 15.2154 30.1808 15.0582C30.1808 15.0268 30.1808 14.9639 30.1808 14.9325C30.1808 14.8067 30.1808 14.681 30.1808 14.5553C30.1808 14.4924 30.1808 14.4295 30.1808 14.3981C30.1808 14.2723 30.1488 14.178 30.1488 14.0837C30.1488 14.0209 30.1488 13.958 30.1168 13.9265C30.1168 13.8008 30.0848 13.6751 30.0528 13.5493C30.0528 13.5179 30.0528 13.4864 30.0208 13.455C29.9888 13.2978 29.9567 13.1406 29.9247 12.9835C29.9247 12.952 29.8927 12.9206 29.8927 12.8577C29.8607 12.732 29.8287 12.6377 29.7967 12.5119C29.7967 12.4491 29.7647 12.4176 29.7647 12.3548C29.7327 12.2604 29.7007 12.1661 29.6687 12.0718C29.6367 12.009 29.6367 11.9775 29.6047 11.9147C29.5727 11.7889 29.5087 11.6632 29.4767 11.5374C29.4767 11.506 29.4447 11.4745 29.4447 11.4745C29.3806 11.3174 29.3166 11.1916 29.2526 11.0659C29.2206 11.0344 29.2206 11.003 29.1886 10.9401C29.1246 10.8458 29.0926 10.7515 29.0286 10.6258C28.9966 10.5943 28.9646 10.5315 28.9646 10.5C28.9006 10.4057 28.8366 10.3114 28.7725 10.2171C28.7405 10.1857 28.7405 10.1542 28.7085 10.1228C28.6125 9.99706 28.5485 9.87132 28.4525 9.74558C28.4205 9.71414 28.4205 9.71414 28.3885 9.6827C28.3245 9.5884 28.2284 9.49409 28.1644 9.39978C28.1324 9.36835 28.1004 9.33691 28.0684 9.30547C28.0044 9.21117 27.9084 9.1483 27.8444 9.08542C27.8124 9.05399 27.7804 9.02255 27.7484 8.99112C27.6523 8.89681 27.5243 8.77107 27.3963 8.67676L35.8138 15.687C35.9418 15.7813 36.0378 15.8756 36.1659 16.0013C36.1979 16.0327 36.2299 16.0642 36.2619 16.0956C36.3259 16.1585 36.4219 16.2528 36.4859 16.3157C36.5179 16.3471 36.5499 16.3785 36.5819 16.41C36.6779 16.5043 36.742 16.5986 36.806 16.6929C36.838 16.7243 36.838 16.7243 36.87 16.7558C36.966 16.8815 37.062 17.0073 37.126 17.133C37.158 17.1644 37.158 17.1959 37.19 17.2273C37.254 17.3216 37.3181 17.4159 37.3821 17.5102C37.4141 17.5417 37.4461 17.6045 37.4461 17.636C37.5101 17.7303 37.5421 17.8246 37.6061 17.9503C37.6381 17.9818 37.6381 18.0132 37.6701 18.0761C37.7341 18.2018 37.7981 18.359 37.8622 18.4847C37.8622 18.5162 37.8942 18.5476 37.8942 18.5476C37.9582 18.6734 37.9902 18.7991 38.0222 18.9248C38.0222 18.9563 38.0222 18.9563 38.0542 18.9877C38.0542 19.0192 38.0862 19.0506 38.0862 19.082C38.1182 19.1763 38.1502 19.2706 38.1822 19.3649C38.1822 19.4278 38.2142 19.4593 38.2142 19.5221C38.2462 19.6479 38.2782 19.7422 38.3102 19.8679C38.3102 19.8994 38.3422 19.9308 38.3422 19.9937C38.3742 20.1508 38.4062 20.308 38.4383 20.4652C38.4383 20.4966 38.4383 20.5281 38.4703 20.5595C38.5023 20.6853 38.5023 20.811 38.5343 20.9367C38.5343 20.9996 38.5343 21.0625 38.5663 21.0939C38.5663 21.1882 38.5983 21.314 38.5983 21.4083C38.5983 21.4711 38.5983 21.534 38.5983 21.5655C38.5983 21.6912 38.5983 21.8169 38.5983 21.9427C38.5983 21.9741 38.5983 22.037 38.5983 22.0684C38.5983 22.2256 38.5983 22.4142 38.5983 22.5714C38.5983 22.6028 38.5983 22.6343 38.5983 22.6657C38.5983 22.7915 38.5663 22.9486 38.5663 23.0744C38.5663 23.1372 38.5663 23.2001 38.5343 23.263C38.5343 23.3887 38.5023 23.483 38.5023 23.6088C38.5023 23.6717 38.4703 23.7345 38.4703 23.7974C38.4383 23.9231 38.4383 24.0489 38.4063 24.1746C38.4063 24.2375 38.3742 24.2689 38.3742 24.3318C38.3422 24.5204 38.3102 24.6776 38.2462 24.8662C38.2462 24.8977 38.2462 24.9291 38.2142 24.9605C38.1822 25.1177 38.1502 25.2749 38.0862 25.4006C38.0542 25.4635 38.0542 25.5264 38.0222 25.5892C37.9902 25.715 37.9582 25.8407 37.8942 25.9665C37.8622 26.0293 37.8622 26.0922 37.8301 26.1551C37.7981 26.2808 37.7341 26.4066 37.7021 26.5323C37.6701 26.5952 37.6701 26.6266 37.6381 26.6895C37.5741 26.8781 37.5101 27.0353 37.4141 27.2239C37.4141 27.2553 37.3821 27.2553 37.3821 27.2868C37.3181 27.444 37.254 27.6011 37.158 27.7583C37.158 27.7898 37.126 27.7898 37.126 27.8212C37.126 27.8526 37.094 27.8841 37.094 27.8841C36.966 28.1355 36.838 28.387 36.7099 28.6385C36.6139 28.8271 36.4859 29.0158 36.3899 29.2044C36.3579 29.2672 36.3259 29.3301 36.2619 29.393C36.1979 29.5187 36.1018 29.6445 36.0378 29.7388C36.0058 29.8016 35.9418 29.8645 35.9098 29.9588C35.8458 30.0531 35.7818 30.1789 35.6858 30.2732C35.6218 30.3361 35.5898 30.4304 35.5257 30.4932C35.4617 30.5875 35.3977 30.6819 35.3017 30.7762C35.2377 30.839 35.1737 30.9333 35.1417 30.9962C35.0777 31.0905 35.0136 31.1848 34.9176 31.2791C34.8536 31.342 34.7896 31.4363 34.7256 31.4992C34.6616 31.5935 34.5656 31.6564 34.5016 31.7507C34.4375 31.8135 34.3735 31.8764 34.3095 31.9707C34.2455 32.065 34.1495 32.1279 34.0855 32.2222C34.0215 32.2851 33.9575 32.348 33.8934 32.4423C33.8294 32.5051 33.7654 32.568 33.7014 32.6309C33.6694 32.6623 33.6694 32.6623 33.6374 32.6937C33.6054 32.7252 33.5414 32.7566 33.5094 32.8195C33.4134 32.9138 33.3173 33.0081 33.2213 33.1024C33.1893 33.1339 33.1253 33.1653 33.0933 33.2282C32.9653 33.3539 32.8373 33.4482 32.7092 33.574L32.6772 33.6054C32.5492 33.7311 32.3892 33.8254 32.2612 33.9512C32.2292 33.9826 32.1651 34.0141 32.1331 34.0455C32.0371 34.1398 31.9091 34.2027 31.8131 34.297C31.7811 34.3284 31.7171 34.3598 31.6851 34.3913C31.557 34.4856 31.429 34.5799 31.301 34.6428C31.269 34.6428 31.269 34.6742 31.237 34.6742C31.0769 34.7685 30.9489 34.8628 30.7889 34.9571C30.7569 34.9886 30.6929 35.02 30.6609 35.02C30.5329 35.0829 30.4368 35.1457 30.3088 35.2086C30.2448 35.2401 30.2128 35.2715 30.1488 35.3029C30.0208 35.3658 29.8927 35.4287 29.7647 35.4915C29.7327 35.523 29.7007 35.523 29.6687 35.5544C29.5087 35.6487 29.3486 35.7116 29.1886 35.7745C29.1566 35.8059 29.0926 35.8059 29.0606 35.8373C28.9326 35.9002 28.8045 35.9316 28.7085 35.9945C28.6445 36.0259 28.6125 36.0259 28.5485 36.0574C28.4205 36.1203 28.2925 36.1517 28.1644 36.2146C28.1324 36.2146 28.1004 36.246 28.0684 36.246C27.9084 36.3089 27.7484 36.3717 27.5883 36.4032C27.5563 36.4032 27.5243 36.4346 27.4603 36.4346C27.3323 36.4661 27.2043 36.4975 27.0762 36.5289C27.0122 36.5289 26.9802 36.5604 26.9162 36.5604C26.7882 36.5918 26.6602 36.6232 26.5641 36.6547C26.5321 36.6547 26.4681 36.6861 26.4361 36.6861C26.2761 36.7175 26.1161 36.749 25.956 36.7804C25.924 36.7804 25.892 36.7804 25.86 36.7804C25.732 36.8118 25.604 36.8118 25.476 36.8433C25.4119 36.8433 25.3799 36.8433 25.3159 36.8747C25.1879 36.8747 25.0919 36.9062 24.9639 36.9062C24.9319 36.9062 24.8678 36.9062 24.8358 36.9062C24.6758 36.9062 24.5158 36.9376 24.3558 36.9376C24.3237 36.9376 24.2917 36.9376 24.2917 36.9376C24.1637 36.9376 24.0357 36.9376 23.8757 36.9376C23.8117 36.9376 23.7797 36.9376 23.7156 36.9376C23.5876 36.9376 23.4916 36.9376 23.3636 36.9062C23.3316 36.9062 23.2676 36.9062 23.2356 36.9062C23.0755 36.9062 22.9155 36.8747 22.7875 36.8433H22.7555C22.6274 36.8118 22.4674 36.8118 22.3394 36.7804C22.3074 36.7804 22.2434 36.749 22.2114 36.749C22.1154 36.7175 21.9873 36.6861 21.8913 36.6547C21.8593 36.6547 21.7953 36.6232 21.7633 36.6232C21.6033 36.5918 21.4752 36.5289 21.3152 36.4975C20.8671 36.3403 20.4511 36.1517 20.067 35.9316C19.6829 35.7116 19.3309 35.4601 18.9788 35.1772L10.5293 28.1984C11.2014 28.7643 11.9696 29.2044 12.8657 29.4873Z" fill="url(#paint0_linear_3289_12440)"/>
<path d="M24.9962 7.45039C19.8432 5.65855 12.93 9.14793 9.56941 15.2465C6.20881 21.3136 7.68108 27.7265 12.866 29.4869C18.0509 31.2788 24.9321 27.7894 28.2927 21.6908C31.6533 15.6237 30.1811 9.24224 24.9962 7.45039Z" fill="url(#paint1_linear_3289_12440)"/>
<defs>
<linearGradient id="paint0_linear_3289_12440" x1="34.9113" y1="13.7769" x2="17.7116" y2="37.2226" gradientUnits="userSpaceOnUse">
<stop stop-color="#CC18BC"/>
<stop offset="1" stop-color="#FF8340"/>
</linearGradient>
<linearGradient id="paint1_linear_3289_12440" x1="28.0066" y1="22.4696" x2="9.97609" y2="14.2493" gradientUnits="userSpaceOnUse">
<stop stop-color="#3C5BB4"/>
<stop offset="1" stop-color="#37CEE6"/>
</linearGradient>
</defs>
</svg>
