<svg width="100" height="100" viewBox="0 0 100 100" fill="none" xmlns="http://www.w3.org/2000/svg">
<path d="M14.6134 29.222L50.0132 8.603L85.4375 29.1907L50.0129 49.7787L14.6134 29.222Z" fill="#166CFB" stroke="#202123" stroke-width="0.5"/>
<path d="M85.7973 29.1912L50.013 49.9884L50.013 91.5828L85.7973 70.7856L85.7973 29.1912Z" fill="#150035"/>
<path d="M14.2545 29.2222L50.0096 49.9872L49.9257 91.6175L14.2253 70.7843L14.2545 29.2222Z" fill="#166CFB"/>
<path d="M84.7504 29.2215L49.9284 9.0005L15.0558 29.251L49.8778 49.472L84.7504 29.2215Z" fill="#166CFB"/>
<path d="M49.9226 8.4545L61.9598 15.4376L49.9115 22.4911L37.8838 15.4377L49.9226 8.4545Z" fill="white"/>
<path d="M50.0977 36.1152L61.8689 43.0984L50.0085 49.9909L38.2372 43.1891L50.0977 36.1152Z" fill="white"/>
<path d="M62.1446 15.5413C62.2434 15.4832 62.2425 15.3895 62.1424 15.3321C62.0423 15.2747 61.881 15.2752 61.7821 15.3333L62.1446 15.5413ZM73.8274 22.2518C73.9258 22.1933 73.9239 22.0997 73.8232 22.0426C73.7226 21.9855 73.5613 21.9866 73.4629 22.045L73.8274 22.2518ZM61.7821 15.3333L26.2878 36.1921L26.6503 36.4001L62.1446 15.5413L61.7821 15.3333ZM38.4226 43.292L73.8274 22.2518L73.4629 22.045L38.0582 43.0853L38.4226 43.292ZM37.7052 15.5418L73.3738 36.3099L73.7346 36.1009L38.0661 15.3328L37.7052 15.5418ZM62.0537 42.9942L26.5631 22.0447L26.1998 22.2522L61.6905 43.2017L62.0537 42.9942Z" fill="#202123"/>
<path d="M38.2422 43.1006L50.0135 49.9024V63.6874L38.2422 56.8856V43.1006Z" fill="white"/>
<path d="M26.475 36.2968L26.6533 78.0148M38.2462 84.7258L38.2649 43.0865M14.2578 43.0988L50.0175 63.6856M50.0175 77.3799L14.2578 56.7931" stroke="#202123" stroke-width="0.5"/>
<path d="M85.427 29.4197L50.0065 49.9883L50.0065 91.1256L85.427 70.557L85.427 29.4197Z" fill="#150035"/>
<path d="M61.8133 43.1321L50.0065 49.9883L50.0065 63.7008L61.8133 56.8445L61.8133 43.1321Z" fill="white"/>
<path d="M73.6198 63.7023L85.6875 56.7016V70.8241L73.6198 77.8327V63.7023Z" fill="white"/>
<path d="M61.8143 43.1309V84.6983M73.6207 77.8329V36.2749M50.0065 63.7036L85.6858 43.0075M85.6858 56.7019L50.0148 77.3794" stroke="#202123" stroke-width="0.5"/>
<path d="M50.0391 8.33333L85.6842 29.2223L50.0393 49.9276L14.2536 29.2223L50.0391 8.33333Z" stroke="#202123" stroke-linejoin="round"/>
<path d="M85.7217 29.2379L50.0163 8.45417L14.1667 29.266V70.8294L49.915 91.6408L85.7217 70.8294V29.2379Z" stroke="#202123" stroke-linejoin="round"/>
<path d="M50.0152 49.8744L49.9277 91.5275" stroke="#202123"/>
</svg>
