<svg width="100" height="100" viewBox="0 0 100 100" fill="none" xmlns="http://www.w3.org/2000/svg">
<path d="M20.4167 37.5L17.5 35.8333L20.4167 34.5833V37.5Z" fill="white"/>
<path d="M79.5859 34.1667L82.0859 35.8334L79.5859 37.5V34.1667Z" fill="white"/>
<rect x="0.865846" y="2.98023e-08" width="36.2013" height="17.6006" transform="matrix(0.865846 -0.500311 0.865846 0.500311 1.79975 27.3794)" fill="white" stroke="#202123"/>
<path d="M66.1133 8.9916L97.4648 27.0804L82.0902 35.7532L50.8687 17.7872L66.1133 8.9916Z" fill="white" stroke="#202123"/>
<rect y="0.250168" width="33.9456" height="33.9456" transform="matrix(0.865832 0.500335 -0.865832 0.500335 50.1932 15.1429)" fill="#166CFB" stroke="#202123" stroke-width="0.5"/>
<rect width="34.4456" height="34.4688" transform="matrix(0.865832 -0.500335 2.20108e-08 1 49.9766 49.4869)" fill="#150035"/>
<rect width="34.4457" height="34.4688" transform="matrix(0.865832 0.500335 -2.20108e-08 1 20.1562 32.2526)" fill="#166CFB"/>
<path d="M49.8553 49.27L49.7304 49.3422V49.4865V83.522L20.4063 66.5766L20.4067 32.3965L49.9808 15.3066L79.3053 32.2523L49.8553 49.27Z" stroke="#202123" stroke-width="0.5"/>
<rect width="37.2013" height="37.2262" transform="matrix(0.865832 -0.500335 2.20108e-08 1 49.9766 54.4405)" fill="white"/>
<path d="M49.9766 54.4405L82.1866 35.8274L82.1866 60.2927L66.0816 69.5993L49.9766 54.4405Z" fill="#150035"/>
<rect width="37.2013" height="37.2263" transform="matrix(0.865832 0.500335 -2.20108e-08 1 17.7734 35.8268)" fill="white"/>
<path d="M49.9835 91.6664L17.7734 73.0532L17.9184 36.25L49.984 54.44L82.0851 36.25L82.1941 73.0531L49.9835 91.6664ZM49.9835 91.6664L49.984 91.6305" stroke="#202123"/>
<path d="M66.0811 63.2467L50.8365 54.4374L82.0829 35.9248L97.4332 45.1294L66.0811 63.2467Z" fill="white" stroke="#202123"/>
<path d="M17.8379 35.9195L49.9835 54.44L33.8785 63.7465L1.6684 45.1334L17.8379 35.9195Z" fill="white" stroke="#202123" stroke-linejoin="round"/>
<path d="M49.4766 91.6416C49.4766 91.9178 49.7004 92.1416 49.9766 92.1416C50.2527 92.1416 50.4766 91.9178 50.4766 91.6416H49.4766ZM49.4766 54.4515V91.6416H50.4766V54.4515H49.4766Z" fill="#202123"/>
</svg>
