<svg width="100" height="100" viewBox="0 0 100 100" fill="none" xmlns="http://www.w3.org/2000/svg">
<g clip-path="url(#clip0_16151_98608)">
<path d="M31.2993 8.72108C32.2913 8.13621 33.6427 8.26452 35.0531 9.07747L74.4591 31.7922C77.3806 33.4762 79.7502 37.5782 79.7502 40.9516L79.7502 84.5513C79.7502 87.9229 77.3832 89.2894 74.4634 87.6037L33.7262 64.0841C31.325 62.6977 29.2254 59.617 28.6138 56.5827L21.0456 19.0348C20.5691 16.6707 21.0841 14.7439 22.4 13.9681L31.2993 8.72108Z" fill="white"/>
<path d="M32.6313 7.99416L74.429 31.8101C77.3623 33.4814 79.7504 37.5998 79.7504 40.9869L79.7504 84.591C79.7504 86.1955 79.2034 87.4196 78.2277 87.9986L68.6053 93.7084L24.0108 22.2359C21.7446 18.6038 21.6306 14.4946 23.7611 13.2357L32.6313 7.99416Z" fill="#166CFB"/>
<path d="M79.6493 39.1299L70.0563 44.5078L69.7656 92.5145C69.7656 92.5145 74.9083 89.8794 78.4139 87.9671C79.3594 87.4513 79.7947 85.7719 79.7947 84.7694C79.7947 70.4526 79.6493 39.1299 79.6493 39.1299Z" fill="#150035"/>
<path fill-rule="evenodd" clip-rule="evenodd" d="M30.9478 8.51363C31.9403 7.91426 33.1795 7.8991 34.1864 8.47401L74.2276 31.3371C77.7619 33.3551 79.9433 37.1126 79.9433 41.1824L79.9433 85.6772C79.9433 86.9701 79.2282 88.1569 78.0853 88.7611L68.207 93.9834L32.6857 64.6164C30.5551 62.8549 29.1217 60.392 28.6428 57.6693L21.0469 14.4928L30.9478 8.51363ZM33.8981 8.9789C33.0743 8.50851 32.0604 8.52092 31.2483 9.01132L21.6885 14.7845L29.2154 57.5686C29.6704 60.1551 31.0321 62.4949 33.0562 64.1683L68.2784 93.288L77.8135 88.2471C78.766 87.7436 79.3619 86.7546 79.3619 85.6772L79.3619 41.1824C79.3619 37.3213 77.2923 33.7565 73.9393 31.842L33.8981 8.9789Z" fill="#202123"/>
<path d="M20.2031 17.6909C20.2031 14.3194 22.5701 12.9528 25.4899 14.6386L65.0149 37.4583C67.9347 39.1441 70.3017 43.2438 70.3017 46.6153L70.3017 90.22C70.3017 93.5915 67.9347 94.958 65.0149 93.2723L25.4899 70.4525C22.5701 68.7668 20.2031 64.667 20.2031 61.2955L20.2031 17.6909Z" fill="white"/>
<path fill-rule="evenodd" clip-rule="evenodd" d="M30.2617 28.0715L60.2253 45.371L60.2253 79.97L30.2617 62.6705L30.2617 28.0715ZM30.7652 28.9436L30.7652 62.3798L59.7218 79.0979L59.7218 45.6617L30.7652 28.9436Z" fill="#166CFB"/>
<path d="M56.6797 39.8094L63.2694 43.614L63.2694 51.2232L56.6797 47.4186L56.6797 39.8094Z" fill="white"/>
<path fill-rule="evenodd" clip-rule="evenodd" d="M56.4258 39.3734L63.519 43.4687L63.519 51.6593L56.4258 47.564L56.4258 39.3734ZM56.9293 40.2455L56.9293 47.2733L63.0155 50.7872L63.0155 43.7594L56.9293 40.2455Z" fill="#166CFB"/>
<path d="M56.6797 73.827L63.2694 77.6316L63.2694 85.2408L56.6797 81.4362L56.6797 73.827Z" fill="white"/>
<path fill-rule="evenodd" clip-rule="evenodd" d="M56.4258 73.391L63.519 77.4863L63.519 85.6769L56.4258 81.5816L56.4258 73.391ZM56.9293 74.2631L56.9293 81.2909L63.0155 84.8048L63.0155 77.777L56.9293 74.2631Z" fill="#166CFB"/>
<path d="M27.2188 22.8007L33.8085 26.6053L33.8085 34.2145L27.2187 30.4099L27.2188 22.8007Z" fill="white"/>
<path fill-rule="evenodd" clip-rule="evenodd" d="M26.9688 22.3646L34.062 26.4599L34.062 34.6505L26.9687 30.5552L26.9688 22.3646ZM27.4723 23.2367L27.4723 30.2645L33.5585 33.7784L33.5585 26.7506L27.4723 23.2367Z" fill="#166CFB"/>
<path d="M27.2188 56.8182L33.8085 60.6228L33.8085 68.232L27.2187 64.4274L27.2188 56.8182Z" fill="white"/>
<path fill-rule="evenodd" clip-rule="evenodd" d="M26.9688 56.3822L34.062 60.4775L34.062 68.6681L26.9687 64.5728L26.9688 56.3822ZM27.4723 57.2543L27.4723 64.2821L33.5585 67.796L33.5585 60.7682L27.4723 57.2543Z" fill="#166CFB"/>
<path d="M67.9084 82.0395L60.4953 86.4074L53.0932 67.1953L51.5729 68.8217L41.2 40.9137L48.6021 36.5889L69.6014 66.5503L63.3231 70.1062L64.4209 72.9013L67.9084 82.0395Z" fill="#166CFB"/>
<path d="M63.2267 70.2035L62.1365 70.7849L53.4883 68.0233L60.6104 86.3373C60.6104 86.3373 61.974 85.2699 65.4796 83.3576C66.4251 82.8418 67.8109 82.1541 67.7325 81.9041C66.5697 78.1977 63.2267 70.2035 63.2267 70.2035Z" fill="#150035"/>
<path d="M60.5522 86.3367L57.0943 86.7968L50.1728 68.7281L44.2167 73.1189L41.2005 40.9136L62.2453 70.8475L53.5773 68.0603L60.5522 86.3367Z" fill="white"/>
<path fill-rule="evenodd" clip-rule="evenodd" d="M69.5587 66.53L62.0734 70.8548L61.9844 70.7007L69.4696 66.3759L69.5587 66.53Z" fill="black"/>
<path fill-rule="evenodd" clip-rule="evenodd" d="M48.7849 36.752L69.6424 66.5485L69.1662 66.8819L48.3086 37.0854L48.7849 36.752ZM68.2472 81.9345L60.8344 86.4403L60.5324 85.9435L67.9452 81.4377L68.2472 81.9345Z" fill="#202123"/>
<path fill-rule="evenodd" clip-rule="evenodd" d="M48.766 37.0963L41.4986 41.3841L41.2031 40.8834L48.4706 36.5956L48.766 37.0963Z" fill="#202123"/>
<path d="M44.257 73.0379L41.2773 40.9158L62.1349 70.7123L53.414 67.8053L60.5361 86.2646L57.1204 86.7007L50.2163 68.6047L44.257 73.0379Z" fill="white"/>
<path fill-rule="evenodd" clip-rule="evenodd" d="M41.1797 40.7304L62.5093 71.0368L53.903 68.2679L60.8607 86.4152L57.0819 87.1022L50.0809 69.0583L44.1593 73.2774L41.1797 40.7304ZM41.9571 42.8452L44.6461 72.2168L50.3524 68.151L57.4503 86.4443L60.0668 85.9686L52.9256 67.3426L61.0345 69.9516L41.9571 42.8452Z" fill="#202123"/>
<path fill-rule="evenodd" clip-rule="evenodd" d="M67.6785 82.154L63.0273 70.0901L63.5698 69.8809L68.221 81.9449L67.6785 82.154Z" fill="#202123"/>
<path fill-rule="evenodd" clip-rule="evenodd" d="M62.1328 70.5357L69.4003 66.1752L69.6994 66.6738L62.4319 71.0342L62.1328 70.5357Z" fill="#202123"/>
<path fill-rule="evenodd" clip-rule="evenodd" d="M19.9141 16.8853C19.9141 14.4303 22.566 12.891 24.6978 14.1087L64.7815 37.0054C68.3148 39.0237 70.4955 42.7807 70.4955 46.8497L70.4955 90.715C70.4955 93.3999 67.5892 95.0783 65.2636 93.7364L25.7304 70.9243C22.1314 68.8476 19.9141 65.0081 19.9141 60.8529L19.9141 16.8853ZM24.4094 14.6136C22.6653 13.6173 20.4955 14.8767 20.4955 16.8853L20.4955 60.8529C20.4955 64.8004 22.6019 68.4478 26.021 70.4208L65.5542 93.2328C67.4922 94.3511 69.9141 92.9524 69.9141 90.715L69.9141 46.8497C69.9141 42.9893 67.8452 39.425 64.4932 37.5102L24.4094 14.6136Z" fill="#202123"/>
</g>
<defs>
<clipPath id="clip0_16151_98608">
<rect width="100" height="100" fill="white"/>
</clipPath>
</defs>
</svg>
