<svg width="120" height="120" viewBox="0 0 120 120" fill="none" xmlns="http://www.w3.org/2000/svg">
<path d="M47.9536 2.06183C47.9536 2.0066 47.9924 1.98421 48.0402 2.01183L97.7864 30.7328C97.8342 30.7604 97.873 30.8276 97.873 30.8828V98.4969C97.873 98.5521 97.8342 98.5745 97.7864 98.5469L48.0402 69.8259C47.9924 69.7983 47.9536 69.7311 47.9536 69.6759L47.9536 2.06183Z" fill="white" stroke="#202123"/>
<path d="M35.4771 11.5386C35.4771 11.4834 35.5158 11.461 35.5637 11.4886L85.3098 40.2096C85.3577 40.2372 85.3965 40.3044 85.3965 40.3596V107.974C85.3965 108.029 85.3577 108.051 85.3098 108.024L35.5637 79.3027C35.5158 79.2751 35.4771 79.2079 35.4771 79.1527L35.4771 11.5386Z" fill="white" stroke="#202123"/>
<path d="M23 21.0618C23 21.0066 23.0388 20.9842 23.0866 21.0118L72.8328 49.7328C72.8806 49.7604 72.9194 49.8276 72.9194 49.8828V117.497C72.9194 117.552 72.8806 117.574 72.8328 117.547L23.0866 88.8259C23.0388 88.7983 23 88.7311 23 88.6759L23 21.0618Z" fill="#166CFB" stroke="#202123"/>
<path d="M49.2262 78.3424C48.1619 76.499 48.1619 74.5066 49.2262 73.8922C50.2904 73.2777 52.0159 74.274 53.0801 76.1173L60.913 89.6842C61.9772 91.5275 61.9772 93.52 60.913 94.1344C59.8488 94.7488 58.1233 93.7526 57.059 91.9093L49.2262 78.3424Z" fill="white" stroke="#202123"/>
<path d="M43.9011 76.9855C49.9214 80.4613 54.8018 77.6436 54.8018 70.692C54.8018 63.7404 49.9214 55.2873 43.9011 51.8115C37.8809 48.3357 33.0005 51.1534 33.0005 58.105C33.0005 65.0566 37.8809 73.5097 43.9011 76.9855Z" fill="white" stroke="#202123"/>
</svg>
