<svg width="100" height="100" viewBox="0 0 100 100" fill="none" xmlns="http://www.w3.org/2000/svg">
<g clip-path="url(#clip0_16151_98617)">
<path d="M54.13 71.2535L51.6755 77.1764C50.3148 76.2548 46.2047 77.6451 44.0159 77.1764C40.5497 76.4342 38.8335 73.9578 37.1845 72.4889C33.7578 69.4363 27.0828 64.422 34.6409 59.8435L43.5565 61.8058C43.5565 61.8058 45.6964 64.9515 48.5286 67.3654C51.172 69.6183 54.13 71.2535 54.13 71.2535Z" fill="#166CFB" stroke="#202123"/>
<path d="M53.6128 35.207L43.3597 40.9483L41.9062 66.021C41.9062 66.021 45.9927 63.7908 49.1796 61.8785C50.1911 61.2716 53.4674 60.1791 55.1389 56.0646C56.8105 51.9501 56.8074 50.4259 56.4471 46.0355C56.01 40.7094 53.6128 35.207 53.6128 35.207Z" fill="#150035"/>
<path fill-rule="evenodd" clip-rule="evenodd" d="M37.5126 52.2126C44.534 56.2665 42.2499 53.8891 42.2499 45.7814C42.2499 37.6737 39.8964 32.8352 32.875 28.7814C25.8535 24.7276 24.7991 22.0846 24.7991 30.1923C24.7991 38.3 30.4911 48.1588 37.5126 52.2126ZM36.6875 67.8127C48.2187 65.1252 56.5198 60.6276 56.5198 48.5062C56.5198 36.3849 42.2499 11.5673 28.375 12.6247C22.9647 13.037 14 17.8753 9.8125 24.7499C9.8125 32.3773 13.4 47.0599 19.3749 53.6565C22.8953 57.5431 31.8623 68.5515 36.6875 67.8127Z" fill="#166CFB"/>
<path d="M36.6875 67.8127L36.7631 68.3069L36.7822 68.304L36.801 68.2996L36.6875 67.8127ZM28.375 12.6247L28.337 12.1261L28.375 12.6247ZM9.8125 24.7499L9.38548 24.4898L9.3125 24.6096V24.7499H9.8125ZM19.3749 53.6565L19.7455 53.3208L19.3749 53.6565ZM41.7499 45.7814C41.7499 47.8311 41.8944 49.5188 41.9987 50.8168C42.0512 51.4696 42.0925 52.0124 42.1025 52.4593C42.1127 52.914 42.0886 53.2226 42.0326 53.4234C41.9807 53.6098 41.9254 53.6272 41.9109 53.633C41.8586 53.6539 41.706 53.6782 41.3521 53.5773C40.6495 53.3769 39.5311 52.8007 37.7626 51.7796L37.2626 52.6457C39.0048 53.6515 40.2339 54.2983 41.0778 54.5389C41.4972 54.6585 41.9176 54.7078 42.2833 54.561C42.6869 54.3991 42.8945 54.0559 42.996 53.6917C43.0934 53.342 43.1129 52.9101 43.1022 52.4369C43.0915 51.956 43.0475 51.3837 42.9955 50.7367C42.891 49.4354 42.7499 47.7855 42.7499 45.7814H41.7499ZM32.625 29.2144C36.0807 31.2096 38.3451 33.3725 39.755 35.9978C41.1675 38.6278 41.7499 41.7726 41.7499 45.7814H42.7499C42.7499 41.6825 42.1557 38.3543 40.636 35.5246C39.1138 32.6903 36.6906 30.407 33.125 28.3484L32.625 29.2144ZM25.2991 30.1923C25.2991 28.1543 25.3676 26.8622 25.5585 26.1033C25.6539 25.7242 25.7625 25.5545 25.8409 25.4827C25.8923 25.4355 25.9625 25.3982 26.1371 25.4218C26.335 25.4485 26.6132 25.5494 27.0036 25.7523C27.3872 25.9516 27.8404 26.2284 28.3825 26.5734C29.4584 27.2579 30.8572 28.1938 32.625 29.2144L33.125 28.3484C31.382 27.3421 30.016 26.4275 28.9194 25.7297C28.3752 25.3834 27.8903 25.0861 27.4647 24.8649C27.0458 24.6472 26.6436 24.4811 26.2709 24.4308C25.8748 24.3773 25.4842 24.4531 25.1652 24.7455C24.8731 25.0132 24.7019 25.4095 24.5887 25.8594C24.3625 26.7586 24.2991 28.1765 24.2991 30.1923H25.2991ZM37.7626 51.7796C34.3457 49.8069 31.2242 46.4017 28.9558 42.4727C26.6874 38.5436 25.2991 34.1377 25.2991 30.1923H24.2991C24.2991 34.3546 25.7569 38.9319 28.0898 42.9727C30.4227 47.0134 33.658 50.5645 37.2626 52.6457L37.7626 51.7796ZM56.0198 48.5062C56.0198 54.4334 53.9993 58.4434 50.6049 61.3154C47.1817 64.2118 42.32 65.9865 36.574 67.3257L36.801 68.2996C42.5862 66.9513 47.6406 65.1335 51.2508 62.0788C54.8897 58.9999 57.0198 54.7004 57.0198 48.5062H56.0198ZM28.413 13.1232C31.7237 12.8709 35.1016 14.1597 38.334 16.4863C41.5643 18.8114 44.6113 22.147 47.2406 25.9098C52.5122 33.4539 56.0198 42.5884 56.0198 48.5062H57.0198C57.0198 42.3027 53.3924 32.9677 48.0603 25.337C45.3878 21.5124 42.2659 18.0843 38.9182 15.6747C35.5727 13.2667 31.9638 11.8497 28.337 12.1261L28.413 13.1232ZM10.2395 25.01C12.2815 21.6577 15.5038 18.781 18.8975 16.6896C22.2968 14.5948 25.8133 13.3213 28.413 13.1232L28.337 12.1261C25.5264 12.3403 21.8554 13.6922 18.3729 15.8383C14.8848 17.9878 11.531 20.9675 9.38548 24.4898L10.2395 25.01ZM36.6118 67.3184C35.5935 67.4743 34.2619 67.0118 32.7078 66.0356C31.1753 65.0729 29.5201 63.6711 27.8877 62.108C24.6198 58.9787 21.5243 55.2846 19.7455 53.3208L19.0043 53.9921C20.746 55.9149 23.8941 59.6683 27.1961 62.8302C28.8486 64.4126 30.56 65.8674 32.1759 66.8824C33.7702 67.8839 35.3689 68.5204 36.7631 68.3069L36.6118 67.3184ZM19.7455 53.3208C16.8325 50.1047 14.4682 44.8695 12.8318 39.4453C11.198 34.0295 10.3125 28.5019 10.3125 24.7499H9.3125C9.3125 28.6253 10.2208 34.2527 11.8744 39.7341C13.5255 45.2072 15.9424 50.6116 19.0043 53.9921L19.7455 53.3208Z" fill="#202123"/>
<path d="M49.8125 29.1875L41.5 35.7495L42.9375 65.875L52.9375 60.625L62.9375 54.25L49.8125 29.1875Z" fill="#150035"/>
<path d="M51.6448 77.5035C52.2262 76.1227 53.171 73.8698 54.1157 71.2535C52.2989 72.271 48.7405 74.4507 46.4849 75.6867L44.0867 77.0675L42.8512 79.9745L42.1406 82.1095L42.25 82.922L44.0867 81.8907L46.7029 80.3378L51.6448 77.5035Z" fill="#150035" stroke="#202123"/>
<path d="M24.5946 33.2447C23.9663 29.175 24.8739 26.1953 24.8739 26.1953C24.8739 26.1953 13.2843 26.7767 13.5636 33.2447C13.692 36.2196 16.0071 43.6372 16.0071 43.6372L25.7815 37.9686C25.7815 37.9686 24.9555 35.582 24.5946 33.2447Z" fill="#150035"/>
<path d="M41.6464 82.9904C33.6533 77.5762 28.9113 71.9433 24.5273 63.2957L33.5275 67.6198C33.5275 67.6198 35.6674 70.7656 38.4996 73.1794C41.1429 75.4323 44.101 77.0675 44.101 77.0675L41.6464 82.9904Z" fill="white" stroke="#202123"/>
<path fill-rule="evenodd" clip-rule="evenodd" d="M84.2119 86.4425L77.0999 82.3364L73.8271 70.3061L58.8743 59.75L54.8199 69.4731L47.582 65.2943L47.9213 64.4569C48.3791 64.4233 55.1054 63.8086 57.4633 56.537C59.6876 49.6773 52.5356 36.4879 52.1555 35.2812L61.9948 29.7201L69.862 34.2623L84.2119 86.4425ZM65.9599 41.7478L60.4843 55.1562L71.4355 61.4789L65.9599 41.7478Z" fill="#166CFB" stroke="#202123"/>
<path d="M69.875 34.6875L59.875 40.4062L75 92.4687L84.4063 87.0312L69.875 34.6875Z" fill="#150035"/>
<path fill-rule="evenodd" clip-rule="evenodd" d="M70.0978 34.0126L84.8906 87.2984L74.7809 93.1426L59.3828 40.1402L70.0978 34.0126ZM60.3647 40.6724L75.2167 91.795L83.9194 86.7642L69.6497 35.3625L60.3647 40.6724Z" fill="#202123"/>
<path d="M55.9326 47.6343L59.1303 58.3174L54.7698 69.5093L45.75 75L50.046 61.3697L55.9326 47.6343Z" fill="#150035"/>
<path d="M100.337 53.957V53.4482M59.1303 58.3174L55.9326 47.6343L50.046 61.3697L45.75 75L54.7698 69.5093L59.1303 58.3174Z" stroke="#202123"/>
<path fill-rule="evenodd" clip-rule="evenodd" d="M14.7713 36.18L14.7642 36.3493C14.4474 43.815 20.1408 53.7866 27.4848 58.0267C34.5063 62.0805 40.1983 58.7942 40.1983 50.6866C40.1983 42.5789 34.5063 32.7201 27.4848 28.6662C20.4634 24.6124 14.7713 27.8987 14.7713 36.0063L14.7713 36.18ZM8.47756 32.3726C7.96884 44.3639 16.9874 59.2334 27.4848 65.2941C37.9822 71.3548 46.492 66.4417 46.492 54.3203C46.492 42.1989 37.9822 27.4595 27.4848 21.3988C16.9874 15.3381 8.47756 20.2512 8.47756 32.3726Z" fill="white" stroke="#202123"/>
<path fill-rule="evenodd" clip-rule="evenodd" d="M26.9231 28.5453C23.8231 26.8484 20.7598 26.6669 18.2175 28.3417L18.2141 28.3439L18.2106 28.3461C15.837 29.8161 14.8241 32.9813 14.9745 36.7906C15.1242 40.5826 16.4279 44.921 18.5693 48.5999C21.1083 52.6983 24.4935 55.8626 27.8301 57.6287C31.1787 59.4012 34.4122 59.7362 36.7118 58.312C39.0887 56.8399 40.1329 53.8057 39.9196 50.037C39.7069 46.2786 38.2423 41.8634 35.6999 37.7582L35.6985 37.7561L35.6972 37.7539C33.1371 33.4526 30.0278 30.2448 26.9231 28.5453ZM36.1955 37.4543C33.6001 33.0944 30.4237 29.7987 27.2023 28.0353C23.9769 26.2697 20.6747 26.0287 17.901 27.8539C15.2594 29.4924 14.2404 32.9345 14.3935 36.8135C14.5474 40.7104 15.8831 45.142 18.0688 48.8959L18.0708 48.8993L18.0729 48.9027C20.6597 53.0794 24.1185 56.3219 27.5581 58.1426C30.9867 59.9574 34.4626 60.3889 37.0179 58.8063C39.6588 57.1707 40.7186 53.8662 40.5001 50.0041C40.2809 46.1323 38.7782 41.6252 36.1955 37.4543Z" fill="#202123"/>
<path fill-rule="evenodd" clip-rule="evenodd" d="M74.1845 92.2564L67.0726 88.1503L63.7998 76.1199L48.0024 66.9993L44.7925 75.2869L37.5547 71.1081L37.894 70.2707C38.3518 70.2371 45.078 69.6224 47.4359 62.3509C49.6603 55.4912 47.6226 48.4027 47.2426 47.1961L51.9675 35.534L59.8347 40.0761L74.1845 92.2564ZM55.9326 47.5616L50.457 60.97L61.4081 67.2927L55.9326 47.5616Z" fill="white" stroke="#202123"/>
<path fill-rule="evenodd" clip-rule="evenodd" d="M56.4609 64.5013L58.698 59.7345L59.2181 59.9075L56.9811 64.6743L56.4609 64.5013Z" fill="#202123" stroke="#202123" stroke-width="0.75"/>
</g>
<defs>
<clipPath id="clip0_16151_98617">
<rect width="100" height="100" fill="white"/>
</clipPath>
</defs>
</svg>
